<?xml version="1.0" standalone="no"?>
<!DOCTYPE svg PUBLIC "-//W3C//DTD SVG 20010904//EN"
 "http://www.w3.org/TR/2001/REC-SVG-20010904/DTD/svg10.dtd">
<svg version="1.0" xmlns="http://www.w3.org/2000/svg"
 width="16.000000pt" height="16.000000pt" viewBox="0 0 16.000000 16.000000"
 preserveAspectRatio="xMidYMid meet">
<metadata>
Created by potrace 1.11, written by Peter Selinger 2001-2013
</metadata>
<g transform="translate(0.000000,16.000000) scale(0.002286,-0.002286)"
fill="#000000" stroke="none">
<path d="M2652 5989 c-111 -18 -224 -76 -407 -208 -71 -52 -369 -282 -445
-344 -38 -30 -454 -360 -530 -419 -246 -191 -341 -373 -308 -583 11 -68 67
-198 99 -230 9 -9 339 -17 339 -8 0 3 -27 35 -60 71 -117 130 -151 240 -106
339 29 61 113 148 231 238 50 38 200 157 335 265 512 409 697 546 803 598 102
49 240 33 283 -34 15 -22 19 -124 10 -214 -24 -221 -25 -278 -8 -360 31 -147
123 -317 237 -439 163 -174 539 -338 846 -368 132 -13 374 59 602 178 212 111
266 135 311 138 72 3 88 -5 81 -42 -41 -248 -41 -1046 0 -1187 2 -8 7 -31 10
-50 3 -19 44 -123 89 -230 149 -348 168 -393 217 -522 26 -69 56 -156 67 -192
l20 -66 -82 -83 c-94 -94 -105 -110 -99 -152 6 -44 35 -78 78 -93 35 -12 43
-10 89 12 28 14 76 43 106 66 29 22 61 38 69 36 9 -3 50 -7 91 -11 41 -3 91
-8 110 -10 19 -3 71 -8 114 -11 44 -3 87 -7 95 -9 9 -2 45 -6 81 -9 36 -4 81
-9 100 -11 19 -3 53 -7 75 -9 45 -6 213 -32 260 -41 76 -14 170 -48 187 -68
83 -97 130 -305 81 -360 -31 -34 -107 -84 -188 -125 -177 -89 -400 -149 -626
-169 -155 -14 -587 -7 -734 12 -16 2 -57 7 -90 10 -148 16 -411 69 -570 116
-271 81 -501 210 -630 352 -68 75 -175 214 -175 226 0 4 80 6 177 6 153 -1
182 2 214 18 38 19 69 66 69 107 0 33 -27 82 -58 105 -27 20 -44 20 -1309 21
-1413 1 -1324 5 -1364 -60 -35 -58 -15 -136 44 -171 31 -19 61 -19 969 -20
l937 0 72 -105 c245 -359 397 -492 731 -639 53 -23 269 -99 302 -105 11 -3 47
-12 78 -20 32 -9 70 -18 85 -21 16 -2 71 -13 123 -24 52 -10 120 -22 150 -26
30 -4 62 -9 70 -10 8 -2 44 -6 80 -10 36 -3 79 -8 95 -10 211 -25 695 -24 840
1 17 2 57 9 90 15 322 53 638 188 789 336 34 33 82 116 94 163 2 8 5 56 6 105
6 206 -115 454 -255 526 -41 21 -194 67 -249 75 -19 3 -42 7 -50 9 -8 2 -37 7
-65 11 -27 3 -59 8 -70 10 -11 2 -63 9 -115 14 -52 6 -108 12 -125 14 -48 6
-157 18 -190 21 -16 1 -70 6 -118 10 -49 4 -96 8 -105 10 -10 2 -23 4 -29 4
-7 1 -13 10 -13 21 0 64 -160 482 -340 890 -50 114 -68 189 -77 335 -13 200
-7 713 11 840 24 180 24 209 -2 268 -70 157 -322 210 -522 108 -30 -15 -119
-60 -197 -99 -140 -71 -285 -132 -353 -148 -19 -4 -42 -9 -50 -11 -121 -30
-456 68 -654 191 -131 82 -231 215 -278 369 -20 68 -21 75 -7 231 28 318 15
410 -66 503 -98 112 -264 167 -423 142z"/>
<path d="M635 3984 c-88 -45 -93 -162 -10 -214 31 -19 49 -20 452 -20 l420 0
29 -34 c26 -30 142 -155 320 -346 33 -36 78 -85 100 -109 73 -82 218 -236 278
-294 76 -74 161 -122 262 -146 73 -18 99 -22 224 -37 122 -14 211 -49 271
-106 35 -33 129 -151 129 -162 0 -4 10 -22 23 -41 l22 -35 143 0 c78 0 142 2
142 5 0 11 -96 185 -135 245 -100 151 -222 258 -345 303 -51 18 -168 43 -250
52 -101 11 -170 26 -216 46 -50 21 -144 111 -339 324 -66 72 -140 153 -166
180 -25 28 -65 70 -87 95 -23 25 -42 48 -42 52 0 4 144 7 320 7 349 1 358 2
396 58 23 35 23 100 0 136 -40 59 2 57 -998 56 -795 0 -917 -2 -943 -15z"/>
<path d="M98 3118 c-44 -9 -98 -71 -98 -112 0 -45 31 -97 71 -118 32 -17 82
-18 967 -18 l933 0 -48 51 c-58 62 -73 79 -139 149 l-50 55 -802 0 c-440 0
-816 -3 -834 -7z"/>
</g>
</svg>
