<svg xmlns:rdf="http://www.w3.org/1999/02/22-rdf-syntax-ns#" xmlns="http://www.w3.org/2000/svg" xml:space="preserve" height="353" viewBox="0 0 500 352.99577" width="500" version="1.1" xmlns:cc="http://creativecommons.org/ns#" xmlns:dc="http://purl.org/dc/elements/1.1/"><g transform="matrix(1.25 0 0 -1.25 -205.35 1394.1)"><path d="m519.84 1064.5c0 18.226-3.8091 26.464-13.119 26.464-9.1136 0-12.922-8.2376-12.922-26.464 0-18.396 3.8081-26.663 12.922-26.663 9.3097 0 13.119 8.2669 13.119 26.663m25.62 48.274v-96.746h-21.811l-1.4944 6.7726c-4.2325-6.7726-12.05-9.3127-20.738-9.3127-21.781 0-33.437 17.579-33.437 51.012 0 32.39 12.273 50.813 33.437 50.813 8.6883 0 16.506-2.9624 20.738-9.3106l1.4944 6.7715h21.811zm-109.64 2.5391c-8.6903 0-15.462-2.9624-20.739-9.3106l-1.4933 6.7715h-21.785v-96.746h25.593v60.547c0 9.537 4.0365 14.389 9.734 14.389 6.3472 0 8.6903-3.8081 8.6903-14.389v-60.547h25.816v71.128c0 18.847-8.2649 28.157-25.816 28.157m-102.64-39.81h26.437c0 10.609-4.8539 16.534-12.472 16.534-8.2659 0-12.695-5.3045-13.964-16.534m27.085-27.509h24.123c-1.0427-21.809-13.964-34.506-37.244-34.506-25.618 0-40.206 18.002-40.206 50.392 0 9.7331 1.4681 18.424 4.4315 25.195-1.0457 0.4234-2.5411 1.0437-4.4315 1.0437-6.3472 0-13.542-5.2762-13.542-19.468v-54.622h-25.618v96.746h21.809l1.4661-6.7715c6.1522 6.7715 13.544 9.3106 26.043 9.3106v-15.038c7.1959 9.537 17.353 15.038 30.049 15.038 22.233 0 35.777-15.038 37.668-40.656 0.64867-6.3482 0.64867-10.778 0.64867-17.549h-52.931c0.64968-13.572 5.9249-20.342 15.039-20.342 7.1939 0 11.623 3.8081 12.696 11.228m-128.04 16.506c0 18.226-3.8091 26.464-12.922 26.464-9.3117 0-13.12-8.2376-13.12-26.464 0-18.396 3.8081-26.663 13.12-26.663 9.1126 0 12.922 8.2669 12.922 26.663m25.591 48.274v-96.746h-21.584l-1.4671 6.7726c-4.4588-6.7726-12.075-9.3127-20.963-9.3127-21.586 0-33.238 17.579-33.238 51.012 0 32.39 12.076 50.813 33.238 50.813 8.8883 0 16.505-2.9624 20.963-9.3106l1.4671 6.7715h21.584zm214.21-115.58c-11.228 0-19.92-2.9634-30.501-9.3137l-61.988-38.531 92.489-57.367 92.26 57.367-62.015 38.531c-10.58 6.3502-19.241 9.3137-30.245 9.3137m-215.25 0c-11.004 0-19.891-2.9634-30.274-9.3137l-62.214-38.531 92.488-57.367 92.488 57.367-62.213 38.531c-10.383 6.3502-19.074 9.3137-30.275 9.3137m77.252-153.27-62.016 38.527 92.263 57.371 92.517-57.371-62.016-38.527c-10.58-6.61-17.78-11.27-30.5-11.27-12.471 0-19.665 4.6579-30.247 11.008"/></g></svg>
