<?xml version="1.0" encoding="UTF-8" standalone="no"?>
<!-- Creator: CorelDRAW -->

<svg
   xmlns:dc="http://purl.org/dc/elements/1.1/"
   xmlns:cc="http://creativecommons.org/ns#"
   xmlns:rdf="http://www.w3.org/1999/02/22-rdf-syntax-ns#"
   xmlns:svg="http://www.w3.org/2000/svg"
   xmlns="http://www.w3.org/2000/svg"
   xmlns:sodipodi="http://sodipodi.sourceforge.net/DTD/sodipodi-0.dtd"
   xmlns:inkscape="http://www.inkscape.org/namespaces/inkscape"
   xml:space="preserve"
   width="199.99997"
   height="242.51904"
   style="clip-rule:evenodd;fill-rule:evenodd;image-rendering:optimizeQuality;shape-rendering:geometricPrecision;text-rendering:geometricPrecision"
   viewBox="0 0 53.652499 65.058616"
   id="svg2"
   version="1.1"
   inkscape:version="0.92.0 r15299"
   sodipodi:docname="герб Набережных Челнов.svg"><metadata
     id="metadata80"><rdf:RDF><cc:Work
         rdf:about=""><dc:format>image/svg+xml</dc:format><dc:type
           rdf:resource="http://purl.org/dc/dcmitype/StillImage" /><dc:title></dc:title></cc:Work></rdf:RDF></metadata><sodipodi:namedview
     pagecolor="#ffffff"
     bordercolor="#666666"
     borderopacity="1"
     objecttolerance="10"
     gridtolerance="10"
     guidetolerance="10"
     inkscape:pageopacity="0"
     inkscape:pageshadow="2"
     inkscape:window-width="1366"
     inkscape:window-height="715"
     id="namedview78"
     showgrid="false"
     inkscape:zoom="0.5"
     inkscape:cx="381.16582"
     inkscape:cy="241.08056"
     inkscape:current-layer="svg2"
     units="px"
     fit-margin-top="0"
     fit-margin-left="0"
     fit-margin-right="0"
     fit-margin-bottom="0"
     inkscape:window-x="-8"
     inkscape:window-y="-8"
     inkscape:window-maximized="1" /><defs
     id="defs4"><style
       type="text/css"
       id="style6"><![CDATA[
    .str0 {stroke:#1F1A17;stroke-width:0.0772596}
    .fil6 {fill:#AAA9A9}
    .fil1 {fill:#FFF500}
    .fil5 {fill:white}
    .fil2 {fill:#CF9A00}
    .fil3 {fill:#009645}
    .fil0 {fill:#0A94D6}
    .fil4 {fill:#F54257}
   ]]></style></defs><path
     style="fill:#0a94d6;stroke:#1f1a17;stroke-width:0.02713576"
     inkscape:connector-curvature="0"
     id="path10"
     d="M 0.01440525,0.01334335 H 53.632921 c 0,4.30862005 -0.165485,36.28468965 2.14e-4,52.01796965 0.04437,4.21467 -0.153273,4.73266 -1.048072,6.20135 -0.714434,1.17275 -2.484452,2.01752 -6.578191,2.0532 -3.784906,0.033 -8.28955,0.0405 -14.080217,0.0441 -3.638655,0.002 -4.251022,3.12496 -5.027201,4.70264 -0.66778,-0.90001 -1.402799,-4.36704 -3.809001,-4.55312 -3.025351,-0.23389 -10.702032,0.1109 -17.1612967,-0.23628 -3.5173409,-0.18902 -5.80604998,-1.86424 -5.80604998,-4.73009 L 0.01442083,0.01308335 Z"
     class="fil0 str0" /><path
     style="fill:#fff500;stroke-width:0.35122833"
     inkscape:connector-curvature="0"
     id="path12"
     d="m 11.494785,29.356873 c 0.690181,-0.0792 0.689967,-0.0579 1.354687,-0.23111 1.970795,-0.51359 4.202131,0.79373 3.977661,2.58722 -0.25843,2.06549 -1.351411,2.6446 -1.361666,4.05781 -0.012,1.65596 3.403507,1.72213 3.154191,1.05616 -0.398844,-1.06552 0.32011,-1.63904 0.826251,-1.02172 -0.773724,-0.42445 -0.631459,0.3596 -0.35971,0.97699 0.672802,1.52851 -2.183004,1.63224 -3.351765,0.42545 -0.968519,-0.99997 -0.665255,-1.6477 0.0048,-3.36501 0.820698,-2.10341 1.218046,-3.39582 -0.651897,-4.34203 -0.821586,-0.41576 -2.070509,-0.2939 -2.719168,-0.0696 -0.709446,0.24526 -0.873399,-0.0741 -0.873399,-0.0741 z"
     class="fil1" /><polygon
     style="fill:#cf9a00"
     id="polygon14"
     points="66.8754,126.475 63.7629,126.821 63.8495,9.66759 65.924,9.23566 "
     class="fil2"
     transform="matrix(0.35122831,0,0,0.35122831,8.7298668e-4,-1.8664749e-4)" /><circle
     style="fill:#cf9a00;stroke-width:0.35122833"
     id="circle16"
     r="0.78949445"
     cy="3.0920601"
     cx="22.851646"
     class="fil2" /><polygon
     style="fill:#fff500"
     id="polygon18"
     points="53.2939,115.393 64.2039,117.969 96.6255,121.057 127.082,119.934 134.1,118.11 130.608,126.257 126.57,132.025 122.591,135.373 88.906,136.356 48.3441,133.689 28.9754,125.969 22.6595,109.829 25.6069,98.3199 30.2386,92.4252 27.8526,92.0041 27.4329,90.7956 27.5608,90.2121 27.3603,89.8963 27.5051,89.3685 26.8701,88.7759 27.9398,85.1903 29.7815,82.7068 33.8878,83.0215 36.6947,84.9864 38.2386,88.2145 37.6772,102.39 45.1159,111.794 "
     class="fil1"
     transform="matrix(0.35122831,0,0,0.35122831,8.7298668e-4,-1.8664749e-4)" /><path
     style="fill:#cf9a00;stroke-width:0.35122833"
     inkscape:connector-curvature="0"
     id="path20"
     d="m 10.046249,29.445213 c -0.1814396,0.19796 -0.4001653,0.45205 -0.4440724,0.81574 -0.012391,0.10285 0.049749,0.19152 0.02101,0.28703 -0.1076883,0.35814 -0.198568,0.46209 -0.3936813,0.6587 l 0.3534762,0.17524 c 0,0 -0.028133,0.0749 -0.1477867,0.16805 0.066023,0.0975 0.130978,0.10377 0.2038385,0.14366 -0.055091,0.0553 -0.1664112,0.16648 -0.1037356,0.25519 0.061216,0.0867 0.1278443,0.0239 0.1577932,0.0858 0.043766,0.0907 -0.076493,0.24091 -0.015134,0.28182 0.3589241,0.23945 0.8426671,0.24013 0.9751791,0.12596 l 0.343399,-0.29579 c -0.581209,0.1974 -0.950677,0.2438 -1.131725,0.0462 -0.070688,-0.0772 0.086144,-0.1364 0.010649,-0.27086 -0.054414,-0.0969 -0.1169471,-0.0113 -0.1676932,-0.0784 -0.051351,-0.0679 0.040882,-0.13012 0.1192975,-0.15776 -0.1007084,-0.0297 -0.097682,-0.0556 -0.1899858,-0.1313 0.1049105,-0.0901 0.1056941,-0.13845 0.1278089,-0.21477 -0.081015,-0.0463 -0.1408068,-0.0846 -0.2903025,-0.15234 0.1693314,-0.20334 0.2000638,-0.28603 0.3204298,-0.58068 0.022472,-0.0549 0.00253,-0.11349 -0.016416,-0.20081 0.1470031,-0.073 0.5526163,-0.037 0.7421383,0.0609 -0.170043,-0.14537 -0.38339,-0.24227 -0.7606551,-0.18607 0.096791,-0.20042 0.2948251,-0.60461 0.4387301,-0.76504 l -0.152558,-0.0705 z"
     class="fil2" /><path
     style="fill:#fff500;stroke-width:0.35122833"
     inkscape:connector-curvature="0"
     id="path22"
     d="m 40.379837,17.109723 c -1.816673,-1.27139 -4.966123,-0.97301 -6.335386,0.45963 -6.276872,6.56794 3.072749,20.97831 11.177384,22.37711 -3.801204,0.69769 -18.286421,-0.45166 -25.300029,-8.59761 -2.008685,-2.333 -3.258321,-5.33716 -4.136381,-8.39713 -0.854563,-2.97785 -2.330112,-5.33969 -4.41796,-5.79246 -1.5235555,-0.33033 -3.3239518,-0.0376 -4.8247539,1.03319 -0.4274765,-3.2673 1.2728865,-7.51784 5.9384629,-7.74814 0.308144,-2.6617596 3.872925,-4.4892596 6.31354,-3.3124096 1.038459,-2.77426 6.244664,-3.7782 8.484377,-0.50084 1.872296,-1.1084 6.036139,-0.19077 6.871536,3.6793296 4.15208,-0.12998 6.365592,3.99505 6.229174,6.79936 z"
     class="fil1" /><path
     style="fill:#009645;stroke-width:0.35122833"
     inkscape:connector-curvature="0"
     id="path24"
     d="m 17.693508,24.627623 c -1.188989,-4.85528 -2.547803,-8.85945 -7.109107,-8.9612 -0.8951584,-0.02 -1.7306708,-0.0577 -2.7706965,0.65357 0.4761918,-2.6993 3.1572195,-5.00796 5.6795025,-4.55926 -0.0025,-2.3301496 2.359956,-4.7139796 6.046747,-3.0758796 0.425731,-3.29913 6.01064,-3.88224 7.230597,-0.57698 1.5618,-1.43178 6.176104,-0.58195 6.390388,3.3543696 3.452827,-0.3611 5.269619,1.93173 5.963225,3.95901 -2.358814,-1.28236 -4.907116,0.0739 -6.049065,1.1913 -0.362735,0.35494 -2.773794,2.75132 -2.477793,6.9728 -1.544565,-1.24337 -7.311625,-1.52046 -12.903847,1.0423 z"
     class="fil3" /><path
     style="fill:#f54257;stroke-width:0.35122833"
     inkscape:connector-curvature="0"
     id="path26"
     d="m 18.374469,25.863063 c 5.479197,-2.95013 12.076003,-1.63384 12.195772,-1.0605 0.547452,2.62113 1.582849,5.30843 2.934754,7.37411 2.672588,4.08338 6.283686,6.55691 7.715117,7.02067 -3.46629,-0.28831 -11.797268,-2.09711 -16.605267,-5.35609 -3.081937,-2.08903 -5.245419,-4.78401 -6.240379,-7.97819 z"
     class="fil4" /><circle
     style="fill:#fff500;stroke-width:0.35122833"
     id="circle28"
     r="0.97212625"
     cy="16.012585"
     cx="19.090412"
     class="fil1" /><circle
     style="fill:#fff500;stroke-width:0.35122833"
     id="circle30"
     r="0.97212625"
     cy="13.809963"
     cx="23.587891"
     class="fil1" /><circle
     style="fill:#fff500;stroke-width:0.35122833"
     id="circle32"
     r="0.97212625"
     cy="15.38287"
     cx="28.184134"
     class="fil1" /><path
     style="fill:#cf9a00;stroke-width:0.35122833"
     inkscape:connector-curvature="0"
     id="path34"
     d="m 9.8040416,30.532653 c 0,0 0.103593,0.0189 0.1909829,0.042 -0.035789,0.0547 -0.048574,0.14297 0.026174,0.20497 0,0 0.07738,0.005 0.144582,-0.01 0.07158,-0.0157 0.132652,-0.0498 0.172643,-0.0677 -0.05021,-0.0375 -0.139916,-0.0918 -0.231259,-0.11666 -0.1424453,-0.0387 -0.3031232,-0.0528 -0.3031228,-0.0528 z"
     class="fil2" /><path
     style="fill:#cf9a00;stroke-width:0.35122833"
     inkscape:connector-curvature="0"
     id="path36"
     d="m 10.786673,29.298463 c 0.564582,0.0884 0.983405,0.19765 1.298386,0.38724 -0.06527,0.0105 -0.130693,0.0217 -0.195862,0.0334 -0.302018,-0.16175 -0.699404,-0.27574 -1.177949,-0.3361 0.390049,0.0961 0.728925,0.22104 1.000604,0.36972 -0.05869,0.0117 -0.116698,0.0239 -0.173462,0.0367 -0.237848,-0.12631 -0.519495,-0.22439 -0.837255,-0.30579 0.264342,0.11278 0.485914,0.22773 0.670702,0.34546 -0.05559,0.0141 -0.109398,0.0288 -0.160998,0.044 -0.244614,-0.15152 -0.522772,-0.27858 -0.801503,-0.36843 0.231009,0.0853 0.487908,0.22293 0.719347,0.39361 -0.05915,0.019 -0.11474,0.0386 -0.165664,0.0591 -0.117837,-0.0717 -0.253908,-0.14444 -0.410705,-0.224 -0.176382,-0.0894 -0.246928,-0.1491 -0.6004429,-0.18244 l -0.1913748,0.309 c -0.0104,0.0197 0.1966095,-0.0951 0.4561797,-0.0202 0.234286,0.0676 0.469711,0.21905 0.65653,0.41601 2.13e-4,0.0245 0.0041,0.0374 0.02589,0.0279 0.301627,0.333 0.463266,0.78572 0.257825,1.183 -0.288522,0.55771 -0.59752,0.79513 -1.015524,1.2814 -1.3951779,1.6233 -2.3866287,3.43043 -2.4998015,5.2836 -0.1614968,2.64449 0.6108388,4.87789 2.7249705,6.96774 0.767279,0.75851 2.056371,1.76343 3.376298,2.44965 0.740498,0.385 1.490862,0.7353 2.164272,0.72623 0.757807,-0.0102 0.748369,-0.28796 1.458279,-0.30819 0.709875,-0.0202 1.024926,0.57274 1.749791,0.5503 0.724865,-0.0224 0.903528,-0.52996 1.616251,-0.49937 0.712758,0.0306 0.775186,0.52445 1.588581,0.50924 0.813431,-0.0152 0.527686,0.30519 1.262561,0.30405 0.734871,-10e-4 1.32032,-0.31581 1.99387,-0.31581 0.673586,0 1.015918,-0.41871 1.631955,-0.4498 0.616075,-0.0311 0.963995,0.4825 1.594776,0.51441 0.630817,0.0319 1.196895,0.29201 1.850359,0.29596 0.653467,0.004 0.846014,-0.30116 1.422169,-0.29828 0.57612,0.003 1.112958,-0.44311 1.851676,-0.44058 0.738717,0.002 0.589828,0.43033 1.404756,0.42791 0.814892,-0.002 0.863252,0.1241 1.666427,0.10615 0.80321,-0.018 0.878707,-0.0821 1.658665,-0.0924 0.711512,-0.009 0.840318,-0.5149 1.532174,-0.50835 0.291832,0.003 0.916882,0.47915 1.603716,0.47627 0.709056,-0.003 0.985824,-0.68039 2.440794,-0.50062 2.264801,-1.23251 2.947863,-4.64475 3.513302,-5.95315 l 0.417256,-0.14219 c 2.84e-4,0 -0.459955,-0.76647 -0.208897,-1.7295 0.189558,-0.72722 0.686725,-0.89039 1.043517,-0.68348 -0.176598,-0.046 -0.635056,0.21035 -0.491007,0.68434 0.14405,0.47398 1.095615,0.48228 1.219932,-0.21178 0.211282,-1.17963 -1.185104,-1.59076 -1.911005,-1.16189 -0.956802,0.56525 -0.994015,1.59819 -1.218829,2.28745 -0.792954,0.39771 -6.128899,1.11634 -10.009586,1.19344 -0.695948,-0.0323 -4.514126,0.008 -8.457472,-0.39048 -5.831233,-0.58983 -12.27982,-1.26862 -14.193733,-5.92803 -0.86667,-2.10979 0.417185,-4.36795 -0.786688,-6.08071 -0.0094,-0.0135 -0.01927,-0.027 -0.02885,-0.0402 0.678998,-0.0509 1.633345,-0.0217 1.892594,0.4951 0.283821,0.56558 -0.438909,1.82907 -0.516682,2.16093 -0.202093,0.86236 0.479329,1.47053 1.323956,1.74171 0.866171,0.27808 1.645596,0.21341 1.780418,-0.35412 0.09829,-0.41391 -0.03753,-0.5039 0.0026,-0.86539 0.04601,-0.41469 1.148036,-0.41224 1.671555,-0.36505 -0.456463,-0.22107 -2.240478,-0.22599 -2.073961,0.53659 0.05035,0.23065 0.02101,0.57313 -0.396319,0.70938 -1.111427,0.36287 -2.013602,-0.2719 -1.99818,-1.38874 0.01211,-0.88195 0.979664,-1.3044 0.469642,-2.25454 -0.307005,-0.57188 -1.61066,-0.6878 -2.1298,-0.64873 -0.05851,0.004 -0.126989,0.0102 -0.203019,0.0176 -0.546455,-0.58894 -1.271499,-0.73164 -2.126168,-0.62512 0.01994,-0.002 0.04263,0.009 -0.01595,0.294 0.442934,-0.14002 1.286847,0.14131 1.610729,0.39141 l 0.0019,0.002 c -0.05516,0.008 -0.111214,0.0156 -0.167943,0.024 -0.37527,-0.2558 -0.846123,-0.35259 -1.460558,-0.3621 z m 0.449236,0.8509 c 0.0469,-0.017 0.09305,-0.0327 0.138171,-0.0475 0.172073,0.16135 0.312702,0.34065 0.391188,0.52619 0.160962,0.38047 0.101207,0.78241 -0.116841,1.17731 -0.381539,0.69089 -0.876711,1.30511 -1.280652,1.93507 -0.6015456,0.93793 -1.050886,1.88369 -1.2598528,2.84164 -0.2299418,1.05387 -0.157829,2.3826 0.2056192,3.45514 0.3634827,1.0725 0.9708346,1.98489 1.7158206,2.68341 3.384419,3.17364 8.147373,3.22438 11.123366,3.54488 0.821836,0.0885 7.858066,0.52836 13.664572,0.63943 3.778198,0.0723 5.842262,-0.22858 6.674919,-0.29906 0.499875,-0.19472 0.732058,-0.29924 1.196501,-0.64356 -0.510096,0.0834 -1.255722,0.17467 -1.937358,0.22844 -1.604534,0.12656 -3.88613,0.25469 -6.27083,0.21933 -5.477054,-0.0811 -11.651507,-0.59734 -12.884283,-0.70588 -1.947719,-0.17154 -3.911419,-0.33916 -5.777776,-0.83658 -3.277192,-0.87348 -5.810968,-2.74442 -6.614578,-4.53124 -0.8111867,-1.80356 -0.7245106,-2.74473 -0.500729,-4.02479 0.093408,-0.53424 0.307076,-1.31409 0.667285,-1.93618 0.784479,-1.35487 0.514511,-0.81447 1.064952,-1.69641 0.4914,-0.78737 0.739006,-1.4502 0.534988,-2.01022 -0.07731,-0.21231 -0.25284,-0.41868 -0.483779,-0.60247 0.05224,-0.0159 0.103273,-0.0306 0.153164,-0.0439 0.429152,0.3539 0.564937,0.73202 0.544675,1.14184 -0.05641,1.13827 -0.71867,1.87161 -1.168438,2.62586 -0.938321,1.57362 -1.1776624,2.61094 -0.955875,4.42274 0.122004,0.99622 0.564582,1.80199 1.130586,2.59381 0.56604,0.79185 1.303619,1.6181 2.397632,2.17709 1.106014,0.56522 2.320141,1.10819 3.526859,1.39728 1.958973,0.46928 3.895649,0.65991 5.552007,0.83348 0.376127,0.0394 6.842314,0.52591 12.577344,0.66753 1.634413,0.0404 3.162667,0.055 4.472752,-0.002 2.231649,-0.0978 3.887606,-0.319 4.303074,-0.3544 l 0.492288,-0.57045 c -1.757058,0.17933 -4.77695,0.54025 -9.461281,0.4617 -3.631034,-0.0609 -7.855432,-0.25687 -11.906851,-0.69645 -2.151344,-0.2334 -4.073722,-0.44646 -5.971584,-0.99868 -0.681028,-0.19815 -1.394784,-0.44465 -2.102807,-0.74902 -0.854419,-0.36729 -1.700827,-0.83013 -2.471418,-1.53715 -0.640469,-0.58759 -1.314873,-1.6295 -1.783696,-2.62298 -0.621913,-1.31805 -0.371708,-3.21228 0.337701,-4.48154 0.369359,-0.66094 1.168477,-2.0152 1.224814,-3.00833 0.03561,-0.62782 -0.167266,-1.04946 -0.548875,-1.34674 0.05908,-0.0135 0.116413,-0.0253 0.17218,-0.0361 0.03732,0.0287 0.07254,0.0581 0.105303,0.0881 0.512835,0.46871 0.557564,1.09098 0.376766,1.78234 -0.163562,0.62562 -0.271927,0.92045 -0.491505,1.40615 -0.107226,0.23728 -0.23596,0.55425 -0.41943,0.9125 -1.224171,2.39037 -0.418538,4.91172 1.390903,6.70702 1.275843,1.26594 2.627679,1.85449 4.475561,2.38303 1.741102,0.49803 3.589519,0.75649 5.146233,0.92903 1.083434,0.12001 7.036859,0.66539 12.389473,0.7776 5.028254,0.10542 9.584563,-0.46041 9.778792,-0.44784 l 0.401019,-0.63919 c -0.276129,0.009 -5.422509,0.81884 -10.353683,0.57794 -3.946296,-0.19284 -8.017067,-0.32513 -12.052645,-0.85236 -2.693739,-0.35194 -5.33428,-0.75136 -7.713396,-2.10231 -0.723727,-0.41095 -1.307429,-0.86506 -1.880841,-1.47626 -0.343933,-0.36669 -0.745626,-0.75955 -1.000175,-1.31911 -0.62918,-1.38261 -0.785976,-2.69997 -0.430684,-4.09156 0.126563,-0.49557 0.51718,-1.20968 0.762331,-1.90695 0.311206,-0.88543 0.533101,-2.06352 -0.311064,-2.75891 0.05901,-0.01 0.116235,-0.0181 0.171895,-0.0261 0.754958,0.70076 0.635875,1.82804 0.381965,2.63751 -0.36872,1.17546 -0.785976,2.29917 -0.809336,3.36722 -0.03404,1.56109 0.778533,2.78758 1.715856,3.69032 1.895263,1.82529 4.102522,2.63837 6.589535,3.08408 1.757557,0.31498 3.583793,0.53071 5.365855,0.66632 2.172713,0.16534 8.561155,0.80898 14.185374,0.55016 2.598054,-0.11951 5.418364,-0.48485 5.553763,-0.50038 0.191837,-0.20455 0.318399,-0.41818 0.477547,-0.68925 -2.524302,0.43061 -5.249528,0.67074 -7.813214,0.69958 -5.955216,0.0671 -13.756735,-0.65435 -16.97079,-1.25091 -2.901852,-0.53869 -4.47774,-0.9468 -6.673268,-2.84566 -1.236921,-1.06987 -1.960648,-2.48976 -1.971827,-3.72186 -0.01524,-1.68477 0.961076,-3.65453 0.689254,-4.71815 -0.08401,-0.32884 -0.295609,-0.71073 -0.575512,-0.98889 0.05363,-0.007 0.105765,-0.0141 0.156689,-0.0212 0.553469,0.5566 0.733199,1.29696 0.617248,2.0808 -0.274847,1.85816 -0.598162,2.54659 -0.437377,3.92712 0.147181,1.26334 1.240159,2.68508 2.384348,3.53413 1.564793,1.16121 3.263912,1.66333 4.285337,1.91684 2.497665,0.62003 5.599457,0.89324 8.199004,1.08149 2.897861,0.20982 5.892381,0.5368 8.687879,0.53541 4.026621,-0.002 8.884706,-0.53367 10.195701,-0.81678 -0.632243,1.77572 -1.633559,3.67666 -2.905947,4.57064 -1.380398,0.96994 -4.999946,0.70984 -6.193666,0.7244 -3.208713,0.0716 -7.730325,-0.0736 -12.918634,-0.41625 -5.459493,-0.36056 -9.789366,-0.814 -12.78285,-2.86446 -1.542819,-1.0568 -2.5590214,-2.38528 -3.0952206,-4.39436 -0.1636692,-0.61355 -0.2975318,-1.40319 -1.068e-4,-3.03781 0.2258465,-1.24084 1.0949016,-2.43927 1.8521044,-3.58117 0.552507,-0.83323 1.388374,-1.66596 1.015169,-2.53715 -0.07019,-0.16378 -0.171325,-0.29422 -0.314767,-0.41495 z"
     class="fil2" /><path
     style="fill:#ffffff;stroke:#1f1a17;stroke-width:0.02713576"
     inkscape:connector-curvature="0"
     id="path38"
     d="m 22.993262,49.164753 4.57e-4,1.4e-4 5.62e-4,-1.8e-4 z M 0.05387334,48.316593 c 1.19404276,0.0152 2.24525156,-0.98974 3.72593536,-1.00313 1.4806802,-0.0134 2.5161821,1.03465 3.8100545,1.05106 1.3160841,0.0166 2.4001257,-1.06926 3.8496738,-1.07047 1.449554,-10e-4 2.616071,1.02283 3.810124,1.03803 1.194043,0.0152 2.319821,-1.02891 3.829829,-1.04269 1.510022,-0.0138 2.504644,1.03408 3.829899,1.05088 1.316119,0.0166 2.400126,-1.06926 3.849673,-1.07047 1.449554,-0.001 2.616071,1.02282 3.810125,1.03803 1.194043,0.0152 2.42363,-1.05278 3.849708,-1.04284 1.426085,0.01 2.537976,1.0897 3.810125,1.10577 1.316084,0.0166 2.400125,-1.06927 3.849673,-1.07048 1.449554,-10e-4 2.616071,1.0229 3.810125,1.03803 1.261882,0.016 2.385416,-1.04999 3.86597,-1.05459 1.480536,-0.005 2.632024,0.98433 3.82607,0.99954 l 0.0025,0.32616 0.0021,4e-5 0.0018,0.24176 0.04597,0.0117 c -0.02178,3.89407 -3.6e-5,0.93921 -3.6e-5,3.14483 -3.5e-5,4.21485 -0.199529,4.73667 -1.094262,6.20536 -0.714433,1.17271 -2.484452,2.01752 -6.57819,2.0532 -3.784907,0.033 -8.28955,0.0405 -14.080216,0.0441 -3.638656,0.002 -4.251022,3.12495 -5.027202,4.70263 -0.667779,-0.9 -1.402798,-4.36703 -3.809,-4.55312 -3.025351,-0.23389 -10.702033,0.1109 -17.1612972,-0.23628 -3.5176078,-0.18904 -5.80631687,-1.86426 -5.80631687,-4.73011 l -0.01716459,-6.3134 h -2.1367e-4 l -6.4099e-4,-0.32624 -0.0037036,4e-5 -0.0010326,-0.5374 z"
     class="fil5 str0" /><path
     style="fill:#aaa9a9;stroke-width:0.35122833"
     inkscape:connector-curvature="0"
     id="path40"
     d="m 0.05820715,48.357623 c 1.19404275,0.0152 2.24525155,-0.98974 3.72593535,-1.00313 1.4806802,-0.0134 2.5161821,1.03465 3.8100545,1.05106 1.3160841,0.0166 2.4001257,-1.06926 3.849673,-1.07047 1.449555,-10e-4 2.616072,1.02283 3.810125,1.03803 1.194043,0.0152 2.319821,-1.02891 3.829829,-1.04269 1.510022,-0.0138 2.504644,1.03408 3.829899,1.05088 1.316119,0.0167 2.400126,-1.06926 3.849673,-1.07047 1.449554,-0.001 2.616071,1.02282 3.810125,1.03803 1.194042,0.0152 2.42363,-1.05278 3.849708,-1.04284 1.426085,0.01 2.537976,1.0897 3.810125,1.10577 1.316084,0.0166 2.400126,-1.06927 3.849673,-1.07048 1.449554,-10e-4 2.616071,1.0229 3.810125,1.03803 1.261882,0.016 2.385416,-1.04999 3.86597,-1.05459 1.480536,-0.005 2.632024,0.98433 3.82607,0.99954 l 0.0038,0.53787 c -1.33884,0 -2.387981,-0.98846 -3.846196,-0.99576 -1.458209,-0.007 -2.472665,1.01257 -3.849638,1.01257 -1.33884,0 -2.253513,-1.00755 -3.810125,-1.01482 -1.345819,-0.006 -2.48107,1.04726 -3.849673,1.04726 -1.33884,0 -2.395995,-1.08789 -3.810125,-1.09515 -1.414123,-0.007 -2.498375,1.03223 -3.849709,1.03223 -1.338805,0 -2.253512,-1.00755 -3.810124,-1.01482 -1.345819,-0.006 -2.48107,1.04725 -3.849673,1.04725 -1.338841,0 -2.395174,-1.01125 -3.810055,-1.01866 -1.414871,-0.007 -2.589504,1.01047 -3.849708,1.01047 -1.33884,0 -2.253513,-1.00754 -3.810125,-1.01481 -1.345819,-0.006 -2.4810701,1.04725 -3.8496734,1.04725 -1.3388402,0 -2.4118427,-0.98824 -3.8100545,-0.99554 -1.3982048,-0.007 -2.4981641,0.9854 -3.72488169,0.9854 l -0.0010326,-0.53741 z"
     class="fil6" /><path
     style="fill:#aaa9a9;stroke-width:0.35122833"
     inkscape:connector-curvature="0"
     id="path42"
     d="m 29.153877,50.156973 c 0,0 2.564469,-1.07016 4.277013,-0.94684 1.868201,0.13454 3.422239,1.24761 5.598298,1.04854 -0.747979,0.61059 -1.204299,1.22948 -2.869623,0.98276 -1.665324,-0.24671 -2.365547,-1.28275 -4.246737,-1.37527 -1.8812,-0.0925 -2.758944,0.2908 -2.758944,0.2908 z"
     class="fil6" /><path
     style="fill:#cf9a00;stroke-width:0.35122833"
     inkscape:connector-curvature="0"
     id="path44"
     d="m 34.193336,41.019063 0.449734,-0.20918 c 0,0 0.224849,3.47465 0.768561,4.53878 0.543677,1.06413 3.73159,4.64549 5.0226,6.2728 l -2.345,-0.20149 c -0.90036,-1.55881 -2.287807,-3.65875 -2.954413,-5.45739 -0.427406,-1.15309 -0.826075,-3.64792 -0.941489,-4.94354 z"
     class="fil2" /><path
     style="fill:#cf9a00;stroke-width:0.35122833"
     inkscape:connector-curvature="0"
     id="path46"
     d="m 9.7501632,29.863343 c 0.2895908,0.0103 0.7879708,0.0721 1.1732818,0.46324 l 0.01246,-1.39215 c -0.278408,0.046 -0.468858,0.0406 -0.75599,0.0957 -0.168406,0.21752 -0.340266,0.59393 -0.4297568,0.83324 z"
     class="fil2" /><path
     style="fill:#cf9a00;stroke-width:0.35122833"
     inkscape:connector-curvature="0"
     id="path48"
     d="m 35.586273,41.075963 0.427546,-0.2657 c 0,0 0.82205,3.93769 1.479075,4.93582 0.657026,0.99814 4.020476,4.01095 5.482042,5.48706 l -2.193902,-0.1078 c -1.065735,-1.4508 -2.638648,-3.02282 -3.495989,-4.73866 -0.537872,-1.07653 -1.035861,-2.64716 -1.698762,-5.31072 z"
     class="fil2" /><path
     style="fill:#cf9a00;stroke-width:0.35122833"
     inkscape:connector-curvature="0"
     id="path50"
     d="m 37.071968,41.091413 0.480361,-0.22232 c 0,0 1.383994,4.16624 2.168048,5.06805 0.784051,0.90178 4.565196,3.3544 6.210244,4.6228 l -2.629071,0.11808 c -1.249382,-1.29599 -2.621627,-2.49328 -3.701876,-4.07832 -0.69264,-1.0162 -2.10352,-4.27863 -2.527685,-5.50828 z"
     class="fil2" /><path
     style="fill:#cf9a00;stroke-width:0.35122833"
     inkscape:connector-curvature="0"
     id="path52"
     d="m 32.672904,40.879623 0.528258,-0.14529 c 3.5e-5,0 -0.169403,3.13696 0.21502,4.26841 0.384458,1.13147 3.055695,5.13794 4.098345,6.93458 l -2.158147,-0.33859 c -0.665966,-1.67245 -1.902637,-4.15244 -2.302693,-6.02842 -0.256472,-1.20273 -0.453545,-3.39197 -0.380791,-4.69069 z"
     class="fil2" /><path
     style="fill:#cf9a00;stroke-width:0.35122833"
     inkscape:connector-curvature="0"
     id="path54"
     d="m 31.036601,40.824133 0.509917,-0.0887 c 7.2e-5,0 -0.464085,2.91424 -0.20131,4.08001 0.262739,1.16573 2.437444,5.36972 3.284459,7.26639 l -2.073821,-0.44354 c -0.485559,-1.73345 -1.431501,-4.38906 -1.631101,-6.29679 -0.127951,-1.22303 -0.09772,-3.23364 0.111855,-4.51739 z"
     class="fil2" /><path
     style="fill:#cf9a00;stroke-width:0.35122833"
     inkscape:connector-curvature="0"
     id="path56"
     d="m 29.038253,40.615853 0.552046,-0.0474 c 7.2e-5,4e-5 -0.692815,2.55546 -0.544316,3.74122 0.148499,1.18571 2.029092,5.78684 2.688186,7.75674 l -2.01905,-0.55647 c -0.315195,-1.77237 -1.147962,-4.77301 -1.161639,-6.69111 -0.0088,-1.22969 0.15174,-2.94554 0.484776,-4.20293 z"
     class="fil2" /><path
     style="fill:#cf9a00;stroke-width:0.35122833"
     inkscape:connector-curvature="0"
     id="path58"
     d="m 27.084054,40.450423 0.523165,0.0149 c -0.286706,0.93188 -0.832022,2.49118 -0.756061,3.68375 0.07596,1.19259 1.577861,5.74596 2.115732,7.75235 l -2.064348,-0.73366 c -0.206616,-1.78826 -0.65254,-4.64991 -0.549409,-6.56534 0.06613,-1.22805 0.32189,-2.91723 0.730921,-4.15201 z"
     class="fil2" /><path
     style="fill:#aaa9a9;stroke-width:0.35122833"
     inkscape:connector-curvature="0"
     id="path60"
     d="m 2.0965575,52.180043 c 0,0 2.5645076,-1.07015 4.2770126,-0.94683 1.8682009,0.1345 3.5918714,1.03173 5.7679069,0.83266 -0.747979,0.61059 -1.435597,1.1678 -3.1471782,0.99818 -1.7115813,-0.16961 -2.2576078,-1.08229 -4.1388042,-1.17481 -1.8812,-0.0925 -2.7589441,0.2908 -2.7589441,0.2908 z"
     class="fil6" /><path
     style="fill:#aaa9a9;stroke-width:0.35122833"
     inkscape:connector-curvature="0"
     id="path62"
     d="m 2.8357737,58.269643 c 0.4294363,-0.27603 2.9969329,-1.23194 4.2872333,-0.86885 1.5538586,0.43727 3.331678,1.2016 4.508578,0.88291 -0.646594,0.47605 -1.031621,0.79951 -2.3555063,0.77932 -1.3238814,-0.0202 -2.3136603,-0.89324 -3.9582377,-0.99017 -1.6445634,-0.097 -2.4821024,0.19678 -2.4821024,0.19678 z"
     class="fil6" /><path
     style="fill:#aaa9a9;stroke-width:0.35122833"
     inkscape:connector-curvature="0"
     id="path64"
     d="m 13.97681,50.062843 c 0,0 2.320534,-1.07016 3.87015,-0.94683 1.690465,0.13453 3.050421,1.00088 5.065731,1.04853 -0.763255,0.46918 -0.981803,0.82857 -2.51953,0.72063 -1.537726,-0.10794 -2.217617,-1.02062 -3.919883,-1.11313 -1.702253,-0.0925 -2.496489,0.2908 -2.496489,0.2908 z"
     class="fil6" /><path
     style="fill:#aaa9a9;stroke-width:0.35122833"
     inkscape:connector-curvature="0"
     id="path66"
     d="m 20.86092,58.477923 c 0.750543,-0.55063 2.801678,-1.17578 4.271077,-0.9931 1.684126,0.20936 3.06584,1.21677 5.482077,1.0948 -0.725863,0.51035 -1.506071,0.99818 -3.01296,0.75147 -1.506924,-0.24672 -2.140518,-1.09772 -3.842753,-1.19024 -1.717637,-0.0925 -2.897399,0.33706 -2.897399,0.33706 z"
     class="fil6" /><path
     style="fill:#aaa9a9;stroke-width:0.35122833"
     inkscape:connector-curvature="0"
     id="path68"
     d="m 41.8564,51.723443 c 0,0 2.564469,-1.07015 4.277013,-0.94683 1.868201,0.13454 3.422239,1.24761 5.598298,1.04854 -0.747979,0.61059 -1.204298,1.22948 -2.869623,0.98276 -1.665324,-0.24671 -2.365547,-1.28275 -4.246736,-1.37527 -1.8812,-0.0925 -2.758945,0.2908 -2.758945,0.2908 z"
     class="fil6" /><path
     style="fill:#aaa9a9;stroke-width:0.35122833"
     inkscape:connector-curvature="0"
     id="path70"
     d="m 18.486301,53.730363 c 2.020012,-1.35258 5.181425,-1.71917 6.645696,-1.49186 1.74577,0.271 3.744304,1.49186 5.651685,1.49186 -1.223957,0.43339 -2.673546,0.56238 -4.18046,0.31566 -1.506889,-0.24672 -2.725897,-0.96289 -4.428146,-1.05541 -1.717636,-0.0925 -3.68874,0.73976 -3.68874,0.73976 z"
     class="fil6" /><path
     style="fill:#aaa9a9;stroke-width:0.35122833"
     inkscape:connector-curvature="0"
     id="path72"
     d="m 30.352549,55.604523 c 1.190945,0.0349 2.591928,-0.35223 3.900707,-0.81942 1.393182,-0.49731 2.710404,-1.17834 4.37641,-1.05491 2.434918,0.18044 4.167745,2.06057 5.257537,1.61301 -0.218155,0.36509 -0.785656,0.59225 -1.388234,0.5024 -1.705779,-0.25433 -3.381963,-1.27516 -5.158034,-1.21398 -1.617427,0.0557 -4.813794,1.27256 -6.988389,0.9729 z"
     class="fil6" /><path
     style="fill:#aaa9a9;stroke-width:0.35122833"
     inkscape:connector-curvature="0"
     id="path74"
     d="m 22.883714,55.645263 c -1.190945,0.0349 -2.591998,-0.35227 -3.900706,-0.81942 -1.393147,-0.49724 -2.706594,-1.0589 -4.376411,-1.09568 -1.848936,-0.0407 -3.831374,1.23784 -4.196475,1.49959 0.676293,-0.1505 3.03614,-0.56726 4.534743,-0.45198 2.126203,0.1636 5.764254,1.16715 7.938849,0.86749 z"
     class="fil6" /><path
     style="fill:#aaa9a9;stroke-width:0.35122833"
     inkscape:connector-curvature="0"
     id="path76"
     d="m 41.679381,57.885393 c 0.429437,-0.27602 2.996933,-1.23193 4.287234,-0.86884 1.553858,0.43727 3.331678,1.20159 4.508577,0.88291 -0.646594,0.47605 -1.031621,0.7995 -2.355506,0.77931 -1.323881,-0.0202 -2.31366,-0.89323 -3.958237,-0.99017 -1.644564,-0.097 -2.482103,0.19679 -2.482103,0.19679 z"
     class="fil6" /></svg>