<svg width="52.917mm" height="26.636mm" version="1.1" viewBox="0 0 52.916649 26.635723" xmlns="http://www.w3.org/2000/svg">
  <g transform="matrix(1 0 0 1 -106.59 -98.793)">
    <path d="m118.44 105.27-3.47 14.381 30.382 0.0458h0.0146c0.97075-0.0117 1.7265-0.0627 2.2662-0.14901 0.62161-0.10467 1.1103-0.32598 1.467-0.6639 0.35635-0.33769 0.63066-0.87334 0.8214-1.6011 0.20469-0.78052 0.26913-1.3163 0.19128-1.6192-0.0732-0.29707-0.31993-0.48902-0.73396-0.57647-0.41353-0.0875-1.2413-0.17466-2.4849-0.25047l-1.5102-0.10468c-2.1014-0.15746-3.6544-0.32043-4.6584-0.48923-0.99985-0.16271-1.8621-0.49512-2.5765-0.99-0.71646-0.48889-1.1626-1.2521-1.3406-2.2828-0.17817-1.0305-0.0405-2.4225 0.41836-4.1753 0.60094-2.2708 1.483-3.9888 2.6439-5.1535 1.1599-1.1588 2.5595-1.9218 4.2006-2.2945 1.6393-0.36682 3.7496-0.55343 6.3292-0.55343 2.5042 0 4.4543 0.18078 5.8606 0.54757 1.4064 0.36682 2.3657 1.083 2.8707 2.1546 0.50713 1.0657 0.49867 2.6091-0.0344 4.6412l-0.28341 1.0832h-2.9331l0.47379-3.0631c0.10993-1.9437-0.94882-2.9532-3.1756-3.0284 0 0-6.4056-0.0472-6.7296-0.0738-3.0468 3e-3 -4.5493 1.7244-4.8094 2.649-0.34007 1.2096-0.91301 3.1804-1.295 4.5987-0.34964 1.8481 0.37761 2.9821 2.1814 3.4017 0.48047 0.11197 1.1046 0.20295 1.872 0.27351 4.6129 0.46249 6.9193 0.69404 6.9193 0.69404 1.3959 0.0175 1.9569 0.88671 1.6825 2.608-0.83423 2.748-1.2512 4.1221-1.2512 4.1221-0.63714 1.8399-2.0359 2.7794-4.1962 2.8182h-36.257l0.16621-0.6146 0.16358-0.60536 0.16125-0.59572 0.15832-0.5858 0.0464-0.17174 4.6665-17.259h4.9853c0.93897 8.8048 1.4081 13.207 1.4081 13.207h6.1411l4.4797-16.447 3.0176-0.0027-4.8196 18.822h-11.804l-1.3454-12.697zm-11.73 20.126 36.399 0.0315c0.10293 1e-3 0.20586 2e-3 0.30943 2e-3 2.5738 0 4.6196-0.11635 6.135-0.34317 1.5092-0.22743 2.7284-0.6354 3.6472-1.2293 0.92424-0.59376 1.6626-1.4323 2.2274-2.5214 0.56308-1.0833 1.0967-2.5855 1.6009-4.5074 0.39039-1.4906 0.55773-2.6844 0.50909-3.5868-0.049-0.90255-0.36157-1.6192-0.92786-2.149-0.56678-0.52401-1.4166-0.92611-2.5575-1.1938-1.1456-0.2738-2.717-0.47762-4.7228-0.62306l-2.8465-0.20411c-0.76777-0.0697-1.3191-0.14521-1.6437-0.23822-0.33235-0.0878-0.55837-0.29159-0.68695-0.60033-0.12888-0.3085-0.1041-0.80326 0.0717-1.4731 0.14667-0.55868 0.34635-0.99019 0.59459-1.2926 0.24871-0.30296 0.68817-0.53593 1.3249-0.69887 0.63076-0.163 1.5486-0.24436 2.7541-0.24436 1.1124 0 1.9055 0.0402 2.3775 0.12801 0.47213 0.0875 0.79113 0.31428 0.94243 0.69281 0.15862 0.37256 0.11722 0.99574-0.11285 1.8751h3.0002l0.47935-2.9847c0.20061-1.5504-0.7246-2.3427-2.713-2.3767 0.063 2.9e-4 -2.2295-6e-3 -6.8141-0.0204-2.0385 0.10002-3.3421 0.99017-3.9116 2.6709 0 0-0.31208 1.1879-0.93605 3.5644-0.5018 1.7095 0.18165 2.7051 2.0505 2.9864 2.5365 0.29214 5.4553 0.60093 8.7566 0.92579 1.2856 0.305 2.1682 1.6055 1.7221 3.4908 0 0-0.31929 0.97629-1.3567 4.4951-0.89954 2.2624-2.5482 3.0264-5.2287 3.0013l-2.6334-7.9e-4h-0.33912l-0.13384-2.7e-4h-0.51089l-1e-3 -2.6e-4h-1.2134l-0.23618-2.7e-4h-0.57447l-0.0717-2.6e-4h-1.4227l-0.3196-2.3e-4h-0.43354l-0.22569-2.7e-4h-1.4168l-0.3536-2.6e-4h-0.75638l-0.22219-2.7e-4h-1.7905l-0.12101-2.6e-4h-0.73191l-0.2808-2.7e-4h-0.59954l-18.596-2e-3h-3.8187v-5.3e-4l1e-3 -3e-3 2.6e-4 -2e-3 5.3e-4 -2e-3 1e-3 -6e-3 2e-3 -9e-3 2.7e-4 -8e-4 2e-3 -9e-3 3e-3 -0.0117 2e-3 -9e-3 1e-3 -3e-3 3e-3 -0.0146 3e-3 -0.0146 1e-3 -3e-3 3e-3 -0.0117 6e-3 -0.0204 3e-3 -0.0146 1e-3 -6e-3 6e-3 -0.0233 6e-3 -0.0233 2e-3 -9e-3 6e-3 -0.0175 6e-3 -0.0262 9e-3 -0.0263 2.6e-4 -2e-3 9e-3 -0.0303 9e-3 -0.0318 3e-3 -0.0146 6e-3 -0.0175 9e-3 -0.035 9e-3 -0.0367 5.3e-4 -2e-3 9e-3 -0.0365 0.0117-0.0399 6e-3 -0.0262 6e-3 -0.0175 0.0117-0.0431 0.0117-0.0449 2e-3 -9e-3 9e-3 -0.0385 0.0117-0.0481 9e-3 -0.0364 3e-3 -0.0146 0.0146-0.0513 0.0146-0.0531 3e-3 -0.0146 0.0117-0.0385 0.0146-0.0563 0.0117-0.0493 2e-3 -9e-3 0.0146-0.0592 0.0146-0.0609 6e-3 -0.0263 9e-3 -0.0365 0.0175-0.0641 0.0175-0.0644 5.3e-4 -2e-3 0.0175-0.0674 0.0175-0.0688 9e-3 -0.0379 9e-3 -0.0327 0.0204-0.072 0.0204-0.0741 2e-3 -6e-3 0.0175-0.0679 0.0204-0.0773 0.0146-0.0516 6e-3 -0.0263 0.0204-0.0799 0.0204-0.0819 6e-3 -0.0175 0.0175-0.0647 0.0233-0.0848 0.0175-0.0677 6e-3 -0.0175 0.0233-0.0883 0.0233-0.0895 9e-3 -0.0312 0.0175-0.0601 0.0233-0.093 0.0233-0.0851 2e-3 -9e-3 0.0263-0.0959 0.0262-0.0977 0.0117-0.0458 0.0146-0.0534 0.0263-0.10088 0.0262-0.10235c0.9144-3.4342 2.5344-9.4966 4.8332-18.021 0 0 2.0513 3e-3 6.1175 3e-3 0 0 0.4633 4.4096 1.5008 13.144 0 0 1.6545 0.0117 4.9214 0.0117 0 0 1.3554-5.2941 4.2872-15.636l-3.0214 0.0029-2.9783 12.736h-0.27962l-1.3401-12.697h-11.81l-6.8686 26.205z" fill="#183b6f"/>
  </g>
</svg>
