<svg xmlns:rdf="http://www.w3.org/1999/02/22-rdf-syntax-ns#" xmlns="http://www.w3.org/2000/svg" height="138.02" width="500" version="1.1" xmlns:cc="http://creativecommons.org/ns#" xmlns:dc="http://purl.org/dc/elements/1.1/" viewBox="0 0 132.29166 36.518495">
 <g fill="#fff">
  <g transform="matrix(1.9217 0 0 1.9217 -169.11 -222.71)" stroke="#fff" stroke-width=".13229">
   <path d="m95.511 127.77h-6.9679c-0.26209 0-0.47466-0.21256-0.47466-0.4749 0-0.26233 0.21257-0.47491 0.47466-0.47491h6.0851c0.32216 0.35109 0.62594 0.68012 0.88288 0.94981zm18.988 4.943c-0.0209 0.11429-0.0551 0.23439-0.113 0.3555-0.0292 0.0606-0.064 0.12058-0.10515 0.17873l-0.0327 0.0431-0.0167 0.0213c-0.003 0.004-0.0397 0.0456-0.029 0.0332l-0.0429 0.0459c-0.0219 0.0254-0.0747 0.074-0.11872 0.11372-0.0483 0.0449-0.087 0.074-0.12672 0.10514-0.0804 0.0651-0.16131 0.11715-0.24345 0.17335-0.16451 0.104-0.33245 0.20056-0.50604 0.28416-0.69239 0.33981-1.4605 0.56023-2.2767 0.67252-0.40847 0.0561-0.82552 0.0826-1.2418 0.089-0.41705 0.009-0.8395-0.0009-1.2686-0.0236-0.85788-0.0462-1.7435-0.14809-2.6462-0.34374-0.90005-0.19835-1.828-0.483-2.7063-1.0114-0.21674-0.137-0.432-0.28392-0.6333-0.45971-0.101-0.0866-0.19883-0.17995-0.29273-0.27803l-0.13801-0.15201-0.022-0.0254-0.0143-0.0174-0.0283-0.0346-0.0561-0.0694c-0.0753-0.0941-0.1498-0.18192-0.2263-0.28195-0.0764-0.10143-0.15323-0.203-0.22998-0.305-0.14661-0.20472-0.2898-0.41166-0.42539-0.62668-0.0246-0.0384-0.0468-0.0787-0.0708-0.11743h-6.9821c-0.26209 0-0.47491-0.21255-0.47491-0.4749s0.21258-0.4749 0.47491-0.4749h9.4501c0.26235 0 0.47468 0.21255 0.47468 0.4749s-0.21258 0.4749-0.47468 0.4749h-1.296c0.0387 0.0554 0.0773 0.11115 0.11629 0.16575l0.20349 0.26994c0.0689 0.0904 0.14907 0.18511 0.22261 0.27705l0.0564 0.0694 0.0283 0.0346 0.0143 0.0174c-0.007-0.007 0.006 0.006 0.007 0.009l0.10171 0.11157c0.0701 0.0729 0.14369 0.14343 0.22189 0.21012 0.15447 0.13529 0.32855 0.25376 0.5063 0.36629 0.72695 0.43813 1.5696 0.70636 2.4027 0.89049 0.83653 0.18315 1.676 0.28269 2.4895 0.3278 0.40676 0.022 0.80762 0.0319 1.1984 0.0247 0.39132-0.006 0.76668-0.0291 1.1278-0.0777 0.72156-0.0969 1.4022-0.29397 1.9813-0.57764 0.14565-0.0694 0.28049-0.14783 0.40774-0.22728 0.0598-0.0414 0.12357-0.0817 0.17481-0.124 0.0271-0.0209 0.0561-0.0429 0.0694-0.0561 0.0184-0.0172 0.0309-0.0219 0.0643-0.0596l0.0358-0.038 0.001-0.001 0.006-0.007c0.007-0.01 0.0143-0.0216 0.0206-0.0353 0.0143-0.0281 0.026-0.0667 0.0343-0.11229 0.0169-0.0914 0.0172-0.20767 0-0.3256-0.0329-0.23733-0.12328-0.48299-0.23903-0.67938-0.0591-0.0993-0.11985-0.18167-0.18781-0.24763 0.0226 0.01-0.0791-0.0487-0.18143-0.0797-0.2133-0.0709-0.46118-0.12158-0.69459-0.16402-0.23561-0.0421-0.46584-0.0756-0.68528-0.10472-0.88092-0.11357-1.589-0.16868-2.072-0.21404-0.24419-0.0229-0.43126-0.0404-0.55728-0.0523-0.023-0.003-0.0417-0.004-0.0609-0.007-0.19467 0.17456-0.34201 0.25915-0.44353 0.32069-0.10986 0.0667-0.16621 0.0949-0.16621 0.0949l-0.007 0.003c-0.20203 0.10158-0.44819 0.0202-0.54993-0.18193-0.0801-0.15935-0.0459-0.34667 0.0713-0.46853 0 0 0.0473-0.049 0.13857-0.13257 0.086-0.0856 0.22751-0.20373 0.343-0.33638 0.0283-0.0321 0.0531-0.0661 0.0726-0.0958 0.006-0.007 0.0114-0.0159 0.015-0.0237-0.001-0.009-0.003-0.017-0.006-0.0263-0.0129-0.0593-0.0319-0.13172-0.0549-0.20816-0.0931-0.30892-0.23414-0.68331-0.39817-1.0969-0.16525-0.41459-0.35746-0.87356-0.57298-1.3713-0.10914-0.24861-0.22287-0.50727-0.34055-0.77575-0.0876-0.20056-0.12085-0.3756-0.1525-0.5438-0.0301-0.16893-0.0487-0.3327-0.065-0.49893-0.0606-0.661-0.0679-1.3428-0.0537-2.0642 0.009-0.36066 0.0228-0.72941 0.0493-1.1102 0.0129-0.19074 0.0296-0.3837 0.0534-0.58499l0.0206-0.15569 0.0143-0.0866 0.0129-0.0723 0.001-0.009c-0.023-0.0114-0.061-0.0264-0.10858-0.0356-0.11028-0.0226-0.25597-0.0174-0.38076 0.0154-0.0277 0.007-0.0689 0.0206-0.0816 0.026 0.003-0.003-0.052 0.0229-0.0483 0.0204l-0.0596 0.0291c-0.0867 0.0454-0.17407 0.0907-0.2616 0.13657-0.1807 0.0962-0.36802 0.19589-0.56073 0.29299-0.38639 0.19393-0.79167 0.38346-1.2494 0.52615-0.22998 0.0699-0.47271 0.13014-0.74927 0.14857-0.13014 0.01-0.31407 0.003-0.43446-0.0189-0.114-0.0181-0.22898-0.0383-0.34471-0.0606-0.46241-0.0883-0.95031-0.2361-1.3946-0.44867-0.11186-0.0514-0.22042-0.10686-0.32781-0.16305-0.10785-0.0566-0.21723-0.11714-0.31504-0.17235-0.24273-0.13615-0.47001-0.31751-0.65708-0.51389-0.37708-0.39839-0.65609-0.8608-0.83041-1.3953-0.0434-0.13457-0.07576-0.27483-0.09954-0.42685l-0.01329-0.13185-0.0049-0.0643-0.000377-0.0451-0.000376-0.0451-0.000248-0.0226 0.000907-0.048 0.0057-0.099c0.01716-0.26039 0.04707-0.50286 0.06987-0.73798 0.02262-0.23218 0.04096-0.46462 0.02822-0.64752-0.0031-0.0444-0.0083-0.0856-0.0149-0.11528-0.0031-0.0144-0.0067-0.0263-0.0093-0.0346-0.000377-0.001-0.000907-0.001-0.0014-0.003-0.0245-0.0376-0.06816-0.0853-0.12112-0.125-0.11696-0.0894-0.26577-0.14515-0.42391-0.15521-0.07944-0.006-0.16255 0.001-0.24763 0.0172-0.04239 0.007-0.08582 0.0223-0.12922 0.0316-0.03871 0.0161-0.06791 0.0229-0.11572 0.0421l-0.08507 0.0394-0.04239 0.0199-0.0089 0.004c0.0019-0.0009-0.01329 0.007-0.01157 0.007l-0.13877 0.0781c-0.09712 0.0623-0.19372 0.12086-0.29276 0.191-0.19712 0.13315-0.39523 0.28098-0.59308 0.42906-0.39572 0.29888-0.7907 0.61319-1.1874 0.93045-0.39792 0.31898-0.79756 0.63918-1.1984 0.96036-0.20374 0.16035-0.40773 0.3207-0.61196 0.48153l-0.30868 0.23684c-0.10666 0.0814-0.19737 0.14956-0.28122 0.22213-0.16942 0.14515-0.31824 0.30255-0.41852 0.46339-0.09954 0.16182-0.15323 0.31799-0.15078 0.47392-0.000243 0.15593 0.051 0.32512 0.14882 0.50016 0.09831 0.17458 0.23856 0.34889 0.39842 0.51684 0.06473 0.0681 0.13559 0.13628 0.20644 0.20277h-1.2958c-0.05467-0.078-0.10763-0.15839-0.15643-0.24494-0.15446-0.27483-0.27288-0.61221-0.27214-0.97556-0.0037-0.36434 0.1265-0.71347 0.29936-0.98782 0.17482-0.2773 0.38984-0.49502 0.61049-0.68528 0.11156-0.0958 0.22728-0.18215 0.3251-0.25718l0.30426-0.23292c0.20031-0.1574 0.40013-0.31456 0.59996-0.47148 0.40037-0.32044 0.79927-0.63966 1.197-0.9579 0.39963-0.31898 0.79928-0.63672 1.2097-0.94638 0.20668-0.15422 0.41239-0.30795 0.63158-0.45604 0.10616-0.075 0.2236-0.14711 0.33786-0.21967l0.18829-0.10614c0.01592-0.009-0.0027 0 0.04193-0.022l0.02133-0.01 0.04239-0.0197 0.08507-0.0394c0.06717-0.0287 0.15691-0.0606 0.23488-0.088 0.07773-0.0199 0.15323-0.0436 0.23365-0.0576 0.15961-0.0301 0.32584-0.0434 0.49428-0.0321 0.33712 0.0219 0.67252 0.14214 0.94688 0.35328 0.1373 0.10643 0.26308 0.23268 0.36752 0.40455 0.014 0.0247 0.03579 0.0671 0.04951 0.099l0.02969 0.0774c0.0167 0.05 0.02917 0.0973 0.03921 0.14272 0.01936 0.0903 0.02822 0.17114 0.03386 0.24861 0.0189 0.30598-0.0079 0.56121-0.03087 0.81154-0.0245 0.24787-0.05346 0.4852-0.06791 0.70513l-0.0046 0.0787 0.000244 0.0219 0.000376 0.0451 0.000376 0.0451c0.000907 0.0114 0.0027 0.0167 0.0037 0.0253 0.0027 0.0154 0.0041 0.0311 0.0054 0.0469 0.014 0.0846 0.03386 0.178 0.064 0.27018 0.1189 0.37244 0.33908 0.73971 0.60534 1.0177 0.13557 0.141 0.27533 0.25205 0.43543 0.34276 0.10343 0.0586 0.19566 0.10958 0.29104 0.1596 0.0961 0.0503 0.19148 0.099 0.2871 0.14295 0.38052 0.18094 0.76225 0.29716 1.1732 0.37733 0.10243 0.0199 0.20595 0.038 0.31016 0.0547 0.0979 0.0143 0.13514 0.0129 0.2236 0.009 0.16157-0.01 0.3457-0.0514 0.5286-0.10772 0.36849-0.114 0.73897-0.28343 1.0999-0.4651 0.18117-0.091 0.3604-0.18659 0.54282-0.28342 0.0949-0.0493 0.18903-0.0986 0.28317-0.14736l0.0774-0.038c0.0504-0.022 0.0417-0.0196 0.0917-0.0394 0.0814-0.0328 0.13729-0.0486 0.20693-0.0679 0.26602-0.0667 0.53008-0.0808 0.80884-0.0274 0.139 0.028 0.28442 0.0747 0.432 0.16403 0.14565 0.0887 0.30206 0.23658 0.38395 0.44107 0.0411 0.0993 0.0626 0.20692 0.065 0.3045 0.003 0.0507-0.001 0.0954-0.004 0.14272l-0.0172 0.10686-0.0129 0.0694-0.009 0.0554-0.017 0.12771c-0.0211 0.17603-0.0366 0.3577-0.0493 0.53768-0.0254 0.3604-0.04 0.71713-0.0479 1.0643-0.0144 0.69336-0.006 1.3566 0.0486 1.9526 0.0143 0.14784 0.0309 0.2925 0.0547 0.42416 0.0233 0.13143 0.0524 0.25253 0.0846 0.32216 0.11886 0.27141 0.23366 0.53302 0.34399 0.78456 0.21796 0.50459 0.41312 0.97091 0.58279 1.398 0.16941 0.42856 0.3148 0.81154 0.42487 1.1766 0.0274 0.0922 0.0524 0.18339 0.0739 0.28318 0.009 0.0397 0.0154 0.0819 0.0219 0.12871 0.0836 0.007 0.17629 0.0161 0.28196 0.026 0.48325 0.0443 1.1952 0.098 2.112 0.21405 0.22949 0.0299 0.47196 0.0644 0.72915 0.10986 0.25866 0.0473 0.5264 0.098 0.83214 0.19761 0.0774 0.0263 0.1574 0.0557 0.24664 0.098 0.0456 0.0226 0.0911 0.0454 0.14442 0.0799 0.0247 0.0151 0.0547 0.0373 0.0824 0.0586l0.0456 0.039 0.0323 0.0312c0.13586 0.13243 0.24739 0.28563 0.33859 0.43934 0.18192 0.31164 0.30868 0.64924 0.36581 1.0366 0.027 0.19345 0.0347 0.40211-0.006 0.63134zm-15.48-15.49c-0.0019-0.003-0.0037-0.006-0.0054-0.007 0.0027 0.004 0.0054 0.01 0.0054 0.007zm7.8413 3.9964c-0.001-0.0009 0.001-0.004-0.00038-0.001 0.00025 0 0.00038 0.001 0.00038 0.001zm-16.185 3.2422h3.0429c0.31211 0.32853 0.62202 0.66296 0.93045 0.99885 0.34913 0.38028 0.69753 0.75981 1.0449 1.1381 0.17653 0.19026 0.3489 0.37659 0.53301 0.56858l0.13583 0.141 0.1422 0.14367c0.11769 0.116 0.25425 0.22066 0.40136 0.30451 0.29568 0.17113 0.61785 0.24738 0.89514 0.2871 0.27999 0.0404 0.52811 0.0557 0.74362 0.0927 0.21624 0.0359 0.39572 0.0914 0.55091 0.18143 0.0787 0.0452 0.15177 0.0999 0.21183 0.15176l0.06842 0.0644 0.04486 0.0487c0.03527 0.0394 0.07356 0.0763 0.1069 0.11771 0.17285 0.20399 0.31824 0.44353 0.45799 0.70514h1.0991c-0.21356-0.42539-0.44549-0.90348-0.81008-1.3365-0.0454-0.0554-0.0966-0.10672-0.1449-0.15986l-0.0367-0.0394-0.0184-0.0199-0.0284-0.0283-0.0684-0.0643c-0.1275-0.11429-0.25744-0.20839-0.3967-0.28832-0.28049-0.16256-0.59284-0.25057-0.87406-0.29617-0.28294-0.0469-0.54111-0.062-0.76324-0.0951-0.22361-0.0322-0.40405-0.0824-0.55165-0.16746-0.07429-0.0424-0.1422-0.0937-0.20619-0.15692l-0.12724-0.12843-0.13044-0.13514c-0.17015-0.17726-0.34595-0.36653-0.51855-0.55238-0.34692-0.37733-0.69483-0.75589-1.0435-1.1349-0.1042-0.11328-0.20938-0.22654-0.31432-0.3398h2.3606c0.26234 0 0.47491-0.21257 0.47491-0.47492 0-0.26233-0.21257-0.4749-0.47491-0.4749h-6.7372c-0.26234 0-0.47467 0.21257-0.47467 0.4749 0 0.26235 0.21233 0.47393 0.47467 0.47393z" stroke="#fff" stroke-width=".13229" fill="#fff"/>
  </g>
  <g>
   <path d="m58.982 1.9636c-0.41258 0-0.57761 0.14853-0.66012 0.56111l-1.865 10.628c-0.06601 0.39607 0.06601 0.5281 0.46209 0.5281h4.7199c2.2279 0 3.7792-1.2542 4.1753-3.4822 0.19804-1.1057 0.01651-1.9969-0.56111-2.6735-0.57761-0.67663-1.4193-1.0067-2.525-1.0067h-3.0366l0.46209-2.624h5.3965c0.41258 0 0.59411-0.14853 0.66012-0.56111l0.14853-0.80865c0.08251-0.41258-0.04952-0.56111-0.46209-0.56111h-6.9148zm4.0268 9.3408c-0.34656 0.29706-0.79215 0.44558-1.3202 0.44558h-2.9211l0.57761-3.3006h2.9376c0.5281 0 0.90767 0.14853 1.1552 0.44558 0.24755 0.29706 0.31356 0.69313 0.23104 1.2047-0.08252 0.5116-0.31356 0.90767-0.66012 1.2047z"/>
   <path d="m69.458 1.9636c-0.41258 0-0.57761 0.14853-0.66012 0.56111l-1.865 10.595c-0.06601 0.41258 0.04952 0.56111 0.46209 0.56111h6.7498c0.41258 0 0.59411-0.14853 0.66013-0.56111l0.14853-0.80865c0.08251-0.41258-0.0495-0.56111-0.46209-0.56111h-5.248l0.5281-3.0366h4.2743c0.41258 0 0.59411-0.14853 0.67663-0.56111l0.14853-0.80865c0.06601-0.41258-0.0495-0.56111-0.46209-0.56111h-4.2743l0.49509-2.888h5.0665c0.41258 0 0.59411-0.14853 0.66012-0.56111l0.14853-0.80865c0.08251-0.41258-0.03301-0.56111-0.47859-0.56111h-6.5682z"/>
   <path d="m78.999 1.9636c-0.41258 0-0.57761 0.14853-0.66012 0.56111l-1.865 10.595c-0.06601 0.41258 0.0495 0.56111 0.46209 0.56111h0.95718c0.41258 0 0.57761-0.14853 0.66012-0.56111l1.6173-9.2252h4.5714c0.41258 0 0.57761-0.14853 0.66012-0.56111l0.13202-0.80865c0.08251-0.41258-0.0495-0.56111-0.46209-0.56111h-6.0731z"/>
   <path d="m94.601 1.9636c-0.34657 0-0.56111 0.016508-0.66012 0.066013-0.11552 0.049515-0.23104 0.18154-0.36307 0.42908l-3.482 5.5285-1.783-5.5285c-0.198-0.5116-0.247-0.4951-0.973-0.4951h-0.95718c-0.37957 0-0.5116 0.18154-0.39608 0.56111l2.6405 7.7235-1.9474 2.8715c-0.24755 0.37957-0.18154 0.56111 0.19804 0.56111h1.1387c0.59411 0 0.75914-0.08251 1.0067-0.49509l6.798-10.661c0.23104-0.37957 0.16503-0.56111-0.18154-0.56111h-1.0397z"/>
   <path d="m108.45 11.75 1.6173-9.2252c0.0825-0.41258-0.0495-0.56111-0.46208-0.56111h-0.94068c-0.41258 0-0.57761 0.14853-0.66012 0.56111l-1.6338 9.2252h-3.3996l1.6338-9.2252c0.0825-0.41258-0.0495-0.56111-0.46208-0.56111h-0.94068c-0.41258 0-0.57761 0.14853-0.66013 0.56111l-1.6338 9.2252h-3.3996l1.6338-9.2252c0.08255-0.41258-0.04951-0.56111-0.46209-0.56111h-0.95718c-0.41258 0-0.57761 0.14853-0.66012 0.56111l-1.87 10.595c-0.06601 0.41258 0.04952 0.56111 0.46209 0.56111h11.849l-0.34657 1.9639c-0.066 0.41258 0.0495 0.56111 0.46209 0.56111h0.85816c0.41259 0 0.59412-0.14853 0.67664-0.56111l0.5776-3.3336c0.0825-0.41258-0.0495-0.56111-0.46208-0.56111h-0.82516z"/>
   <path d="m120.81 1.9636c-0.24754 0-0.44558 0.082511-0.5941 0.26405l-4.7034 5.6441c-0.92417 1.1222-1.6833 2.2114-2.2939 3.2676h-0.066c0.51159-1.3533 0.85817-2.624 1.0727-3.8287l0.84167-4.7859c0.0825-0.41258-0.0495-0.56111-0.46209-0.56111h-0.95718c-0.41259 0-0.57762 0.14853-0.66013 0.56111l-1.8649 10.595c-0.066 0.41258 0.0495 0.56111 0.46209 0.56111h0.9737c0.26404 0 0.46207-0.09902 0.6106-0.28055l4.7859-5.7596c0.5611-0.67663 0.99018-1.2212 1.2707-1.6338 0.28055-0.39607 0.59411-0.89117 0.94068-1.5018h0.066c-0.31356 0.79215-0.5281 1.4028-0.64362 1.8483-0.13203 0.44558-0.26405 1.0892-0.41259 1.9309l-0.85816 4.8354c-0.0825 0.41258 0.0495 0.56111 0.46209 0.56111h0.94068c0.37957 0 0.61062-0.18154 0.66013-0.56111l1.8648-10.595c0.0825-0.41258-0.0495-0.56111-0.46209-0.56111h-0.97369z"/>
   <path d="m125.22 1.9636c-0.41258 0-0.57761 0.14853-0.66012 0.56111l-1.8649 10.595c-0.066 0.41258 0.0495 0.56111 0.46209 0.56111h6.7498c0.41258 0 0.59411-0.14853 0.66012-0.56111l0.14854-0.80865c0.0825-0.41258-0.0495-0.56111-0.46209-0.56111h-5.248l0.5281-3.0366h4.2743c0.41258 0 0.59411-0.14853 0.67663-0.56111l0.14853-0.80865c0.066-0.41258-0.0495-0.56111-0.46209-0.56111h-4.2743l0.49509-2.888h5.0665c0.41258 0 0.59411-0.14853 0.66012-0.56111l0.14854-0.80865c0.0825-0.41258-0.0329-0.56111-0.47859-0.56111h-6.5682z"/>
   <path d="m68.565 22.592c-0.41258 0-0.57761 0.14853-0.66012 0.5611l-0.80865 4.7034c-0.79215 0.18154-1.6008 0.26405-2.426 0.26405-1.6503 0-2.2279-0.59411-1.9639-2.1289l0.49509-2.8385c0.08251-0.41258-0.0495-0.5611-0.46209-0.5611h-0.94068c-0.41258 0-0.59411 0.14853-0.66012 0.5611l-0.47859 2.7065c-0.47859 2.789 0.70963 4.1918 3.5647 4.1918 0.97368 0 1.8153-0.08251 2.5085-0.23104l-0.69313 3.9277c-0.06601 0.41258 0.04952 0.56111 0.46209 0.56111h0.95718c0.41258 0 0.57761-0.14853 0.66012-0.56111l1.8649-10.595c0.08251-0.41258-0.04952-0.5611-0.46209-0.5611h-0.95718z"/>
   <path d="m72.273 22.592c-0.41258 0-0.57761 0.14853-0.66012 0.5611l-1.8649 10.595c-0.06601 0.41258 0.04952 0.56111 0.46209 0.56111h6.7498c0.41258 0 0.59411-0.14853 0.66012-0.56111l0.14853-0.80865c0.08251-0.41258-0.0495-0.56111-0.46209-0.56111h-5.248l0.5281-3.0366h4.2743c0.41258 0 0.59411-0.14853 0.67663-0.56111l0.14853-0.80865c0.06601-0.41258-0.04952-0.56111-0.46209-0.56111h-4.2743l0.49509-2.888h5.0665c0.41258 0 0.59411-0.14853 0.66012-0.56111l0.14853-0.80865c0.08252-0.41258-0.03301-0.5611-0.47859-0.5611h-6.5682z"/>
   <path d="m83.084 22.592c-0.41258 0-0.57761 0.14853-0.66012 0.5611l-0.61062 3.5152c-0.39608 2.2939-0.90767 3.8452-1.5018 4.6374-0.59411 0.80865-0.92417 1.0232-1.5348 1.3037-0.41258 0.18153-0.5281 0.37957-0.41258 0.75914l0.28055 0.82516c0.08251 0.37957 0.29706 0.44558 0.70963 0.26405 0.5116-0.23104 0.95718-0.47859 1.3202-0.74264 0.34657-0.26405 0.74264-0.67663 1.1717-1.2212 0.84166-1.1057 1.4853-3.0366 1.9969-5.8256l0.37957-2.1454h3.4987l-1.6338 9.2252c-0.06601 0.41258 0.0495 0.56111 0.46209 0.56111h0.94068c0.41258 0 0.59411-0.14853 0.67663-0.56111l1.8649-10.595c0.08251-0.41258-0.03301-0.5611-0.47859-0.5611h-6.4692z"/>
   <path d="m99.93 22.592c-0.41258 0-0.57761 0.14853-0.66013 0.5611l-0.74264 4.2578h-4.8849l0.74264-4.2578c0.08251-0.41258-0.0495-0.5611-0.46209-0.5611h-0.95718c-0.41258 0-0.57761 0.14853-0.66012 0.5611l-1.8649 10.595c-0.06601 0.41258 0.0495 0.56111 0.46209 0.56111h0.95718c0.41258 0 0.57761-0.14853 0.66012-0.56111l0.75914-4.4063h4.9014l-0.77564 4.4063c-0.06601 0.41258 0.04951 0.56111 0.46209 0.56111h0.94067c0.41258 0 0.59412-0.14853 0.66013-0.56111l1.8813-10.595c0.0826-0.41258-0.033-0.5611-0.47859-0.5611h-0.94067z"/>
   <path d="m111.16 30.613c0.41259-2.393-0.85816-3.9442-3.2511-3.9442h-2.8055l0.62712-3.5152c0.0826-0.41258-0.0495-0.5611-0.46209-0.5611h-0.95718c-0.41258 0-0.57761 0.14853-0.66012 0.5611l-1.8648 10.595c-0.066 0.41258 0.0495 0.56111 0.46208 0.56111h4.4063c2.426 0 4.0928-1.3368 4.5053-3.6967zm1.2212 3.1356c-0.0825 0.41258 0.0495 0.56111 0.46208 0.56111h0.94068c0.37957 0 0.61062-0.18154 0.66013-0.56111l1.8648-10.595c0.0825-0.41258-0.0495-0.5611-0.46209-0.5611h-0.94067c-0.41258 0-0.57762 0.14853-0.66013 0.5611l-1.8648 10.595zm-3.3501-3.2676c-0.19804 1.1882-1.0562 1.8979-2.2609 1.8979h-2.6735l0.67662-3.7792h2.6735c1.2047 0 1.7989 0.69313 1.5843 1.8814z"/>
  </g>
 </g>
</svg>
