<svg xmlns:rdf="http://www.w3.org/1999/02/22-rdf-syntax-ns#" style="image-rendering:optimizeQuality;text-rendering:geometricPrecision;shape-rendering:geometricPrecision" xmlns="http://www.w3.org/2000/svg" fill-rule="evenodd" xml:space="preserve" height="280.48" width="500" version="1.1" clip-rule="evenodd" xmlns:cc="http://creativecommons.org/ns#" xmlns:dc="http://purl.org/dc/elements/1.1/" viewBox="0 0 499.99997 280.40192"><defs><style type="text/css"><![CDATA[
    .fil2 {fill:#FEFEFE}
    .fil3 {fill:#9D9E9E}
    .fil4 {fill:#2B2A29}
    .fil1 {fill:#EF7F1A}
    .fil0 {fill:#56698F}
   ]]></style></defs><path d="m126.52 4.0162c-14.31-4.5162-41.402 3.0107-58.714 23.334-15.054 17.311-22.581 39.892-24.839 57.204 5.269-21.075 15.806-43.656 29.355-57.957 11.29-12.043 33.868-21.828 45.918-19.57 12.796 2.2581 8.2796 9.785-9.0323 30.108-32.366 38.387 4.5161 87.312-10.538 133.23-8.2796 24.839-55.699 50.43-79.785 54.194-7.5269 1.5054-12.043-19.57-2.2581-37.635 13.548-24.839 46.667-43.656 73.764-42.151 6.7742 0.75269 9.0323 0 9.0323-7.5269 0-15.807-5.2688-33.118-6.0215-57.205 0-3.7635-1.5054-6.7742-9.0323-5.2688-1.5054 0.75269-4.5162 1.5054-6.7742 2.2581-26.344 9.785-51.936 26.344-67.742 53.441-14.301 25.592-12.796 70 3.0108 100.11 6.7742 8.2796 13.548 5.2688 25.592 1.5054 24.839-7.5269 42.903-19.57 54.194-33.118 19.57-22.581 22.581-51.183 15.054-79.033-9.0323-36.129-11.29-61.721 12.043-87.312 4.5161-4.5162 24.839-22.581 6.7742-28.602z" class="fil1" fill="#ef7f1a"/><g fill="#56698f"><path class="fil0" d="m237.16 80.038c0.7527 8.2796 1.5054 16.559 2.2581 24.086 0.7527 2.2581 2.2581 4.5162 4.5162 3.7635 5.2688-0.75269 10.538-1.5054 16.559-2.2581 2.258 0 3.0107-2.2581 3.0107-4.5161 0-9.0323-0.7527-17.312-1.5053-25.592-0.7527-9.785-4.5162-18.817-11.29-24.839-6.0215-6.0215-15.806-8.2796-29.355-4.5161-6.0215 1.5054-12.796 3.0108-18.817 5.2688-2.258 0.75269-3.7634 3.0108-3.7634 5.2688 0 9.785 0 18.817 0.7527 27.85 0.7527 9.0323 2.258 18.065 3.0107 27.097 0.7527 2.2581 3.0108 3.7634 4.5162 3.7634 5.2688-1.5054 11.29-2.2581 16.559-3.7634 2.2581 0 3.0108-2.2581 3.0108-4.5162-0.7527-5.2688-1.5054-11.29-1.5054-16.559-0.7527-6.0215-1.5054-11.29-1.5054-17.312 6.7742-2.2581 13.548-0.7527 13.548 6.7742z"/><path class="fil0" d="m420.07-0.5h-16.559c-2.258 0-3.7634 2.2581-3.7634 5.2688 1.5054 15.054 3.0107 29.355 3.0107 44.409 0.7527 15.054 0 30.108-0.7527 45.161 0 2.2581 0.7527 5.2688 3.0108 5.2688 5.2689 0 10.538 0.75269 16.559 0.75269 2.2581 0 3.7635-2.2581 4.5162-4.5161 0.7527-15.054 2.258-30.86 1.5054-45.914 0-15.054-1.5054-30.108-3.7635-45.161 0-3.0108-1.5054-5.2688-3.7635-5.2688z"/><path class="fil0" d="m330.49 94.339v-42.903c-0.7527-14.301-1.5054-28.602-1.5054-42.151 0-3.0108-1.5054-4.5162-3.7635-4.5162-5.2688 0.75269-11.29 1.5054-16.559 2.2581-2.2581 0-4.5161 2.2581-4.5161 5.2688 0 6.7742 0 12.796 0.7527 19.57-23.334 3.7635-37.635 21.828-39.893 38.387-1.5054 16.559 7.5269 31.613 28.602 31.613 4.5161 0 10.538-2.2581 12.796-5.2688 0.7527 2.2581 1.5054 4.5162 3.7635 3.7634 6.0215 0 11.29-0.75269 17.312-0.75269 1.5054 0 3.0108-3.0108 3.0108-5.2688zm-24.839-38.387v16.559c-3.0108 3.0108-12.796 9.0323-15.807 2.2581-4.5161-7.5269 3.7635-16.559 15.807-18.817z"/><path class="fil0" d="m398.24 93.586c0.7527-10.538 0.7527-21.828 0.7527-32.366s0-21.828-0.7527-32.366c0-3.0108-2.2581-5.2688-4.5162-4.5162h-7.5269c-15.806 0-28.602 5.2688-36.882 12.043-9.0323 6.7742-13.548 16.559-15.054 26.344-1.5054 8.2796 0.7527 17.312 5.2689 24.086 4.5161 6.7742 12.043 12.043 21.075 12.043 4.5162 0 10.538-2.2581 13.548-4.5162 0 1.5054 0.7527 4.5162 3.0107 4.5162h16.559c2.2581 0 3.7635-2.2581 4.5162-5.2688zm-24.086-42.151c0.7527 6.0215 0.7527 11.29 0.7527 17.312-3.7635 3.0108-13.548 8.2796-16.559 1.5054-3.7634-9.0323 4.5162-17.312 15.807-18.817z"/><path class="fil0" d="m158.13 94.339c-0.7526-6.7742-0.7526-14.301 0-21.075 0-1.5054-1.5053-3.0108-3.7634-2.2581-5.2689 2.2581-8.2796 3.7635-11.29 7.5269-7.5269 6.7742-10.538 15.807-8.2796 25.592 0.7527 7.5269 5.2689 14.301 12.796 18.065 7.5269 3.7635 18.065 4.5162 30.108 0.7527 6.0216-2.2581 12.043-3.7635 18.065-5.2688 2.2581 0 3.7635-2.2581 3.0108-4.5162-1.5054-9.0323-3.0108-18.065-3.7635-27.097-0.7527-9.0323-0.7527-18.065-0.7527-27.85 0-1.5054-1.5054-3.7635-3.0107-3.0108-6.0216 2.2581-11.29 4.5162-17.312 6.7742-2.2581 0.75269-3.0108 3.0108-3.7635 5.2688v15.054c0.7527 5.2688 1.5054 10.538 1.5054 15.807-6.7742 3.0108-12.796 2.2581-13.548-3.7635z"/><path class="fil0" d="m24.902 248.64c7.5269 9.0323 18.817 19.57 30.108 28.602 4.5162 3.7635 9.785 3.0108 15.054 1.5054 71.506-24.839 106.88-85.807 66.237-158.07-13.548-24.086-4.5162-42.151 15.054-57.957 8.2796-6.7742 14.301-8.2796 10.538-19.57-4.5161-10.538-19.57-31.613-30.108-36.882 11.29 9.0323-2.258 20.323-9.0322 27.85-24.086 23.333-22.581 56.452-10.538 93.334 8.2796 26.344 9.0323 53.441-9.0323 78.28-12.796 16.559-35.376 33.118-63.226 41.398-6.0215 2.2581-10.538 2.2581-15.054 1.5054z"/><path class="fil0" d="m431.36 61.221c0.7527-11.29 3.0108-20.323 9.0323-26.344 5.2688-6.0215 13.548-9.785 24.839-9.0323 7.5269 0.75269 15.806 2.2581 24.086 3.0108 2.2581 0 4.5162 2.2581 5.2689 5.2688 0.7527 6.7742 0.7527 14.301 0 21.828-0.7527 6.7742-3.0108 13.548-6.0215 19.57 3.0107 0 5.2688 0.75269 8.2796 0.75269 1.5053 0 3.7634 2.2581 3.0107 5.2688-0.7527 7.5269-2.2581 14.301-3.7634 21.828-0.7527 3.0108-3.7635 4.5162-6.0216 4.5162-9.785-1.5054-18.817-3.0108-28.602-4.5162-11.29-0.75269-18.817-6.0215-23.334-13.548-4.5161-7.5269-6.7742-17.312-6.7742-28.602zm42.151-7.5269c-2.258 0-4.5161 0-6.7742-0.75269-5.2688 0-8.2796 4.5162-9.0323 9.785 0 4.5161 2.2581 9.0323 6.7742 9.785h2.2581c3.7635 0.7527 6.7742-12.043 6.7742-18.817z"/></g></svg>
