<svg xmlns:rdf="http://www.w3.org/1999/02/22-rdf-syntax-ns#" style="image-rendering:optimizeQuality;text-rendering:geometricPrecision;shape-rendering:geometricPrecision" xmlns="http://www.w3.org/2000/svg" fill-rule="evenodd" xml:space="preserve" height="100" width="1486.6" version="1.1" clip-rule="evenodd" xmlns:cc="http://creativecommons.org/ns#" xmlns:dc="http://purl.org/dc/elements/1.1/" viewBox="0 0 1486.5701 99.971494"><defs><style type="text/css"><![CDATA[
    .fil0 {fill:#2B2A29}
    .fil1 {fill:#E31E24}
   ]]></style></defs><g transform="matrix(1.5747 0 0 1.5747 -88.098 -1144)"><g stroke-width=".42337" fill="#2b2a29"><path d="m718.04 749.29h23.285c5.0804 0 8.044 0.8467 9.3142 2.1168 1.6935 1.2701 2.1168 4.6571 0.42337 9.7375-1.2701 4.6571-2.9636 8.044-5.5038 9.7375-1.6935 1.2701-5.5038 1.6935-10.584 1.6935h-13.548l-2.1168 7.6207h-9.3141zm5.5038 15.241h13.548c1.2701 0 2.1168 0 2.9636-0.4234 0.84674-0.8467 1.2701-1.6935 1.6935-2.9636 0.42337-1.2701 0.42337-2.5402 0-2.9636-0.84674-0.4233-1.2701-0.8467-2.5402-0.8467h-13.548zm74.09 0.4233c-1.6935 7.1973-3.8103 11.854-6.3506 13.124-2.1168 1.6935-8.4674 2.5402-18.205 2.5402-7.1973 0-11.854-0.4233-13.971-0.8467-2.5402-0.4234-3.8103-2.1169-4.2337-4.2337 0-1.6935 0.84674-5.0804 2.1168-10.584 2.1168-7.6206 4.2337-12.278 6.3506-13.548 2.5402-1.6935 8.4674-2.5402 18.205-2.5402 9.7375 0 15.665 0.8467 16.935 2.5402 1.6935 1.2701 1.2701 5.9272-0.84674 13.548zm-30.906 0c-1.2701 3.8104-1.2701 5.9272-0.84674 6.774 0.84674 0.4233 3.8103 0.8467 9.3141 0.8467s8.8908-0.4234 9.7375-0.8467c1.2701-0.8468 2.1168-2.9636 3.387-6.774 0.84674-4.2337 1.2701-6.3505 0.42337-7.1972-0.84674-0.4234-3.8103-0.8468-9.3141-0.8468s-8.4674 0.4234-9.7375 0.8468c-0.84674 0.8467-2.1168 2.9635-2.9636 7.1972zm37.68 7.1973c0.84674 0 1.6935-1.6934 2.9636-4.657 1.2701-3.387 3.387-9.3142 5.5038-18.205h35.563l-5.9272 22.862h2.1168l-2.9636 11.431h-9.3141l0.42337-1.2701v-1.6935c-0.42337-0.4233-0.84674-0.4233-1.6935-0.4233h-19.052c-1.2701 0-2.1168 0.8467-2.5402 2.1168l-0.42337 1.2701h-9.3141l2.9636-11.431zm28.366 0 4.2337-14.818h-16.511c-1.2701 4.2337-2.1168 7.6206-3.387 10.161-0.84674 2.5402-2.1168 4.2337-2.5402 4.657zm26.672-22.862h13.124l9.7375 13.124c0.42337 0 0.42337 0.4234 0.42337 1.6935v0.8467s0.42337-0.4233 0.42337-1.2701c0.42337-1.2701 0.84674-1.6934 1.2701-2.1168l10.161-12.278h10.584l-16.088 19.898c-3.387 3.387-5.0804 5.5039-5.5038 5.9272-1.6935 2.1169-3.387 3.387-5.0804 3.8104-1.6935 0.8467-4.2337 1.2701-7.1973 1.2701h-15.241l2.1168-8.0441h15.665 1.2701c0.42337 0 0.42337-0.4233 0.84674-0.8467zm55.038 0h9.3142l-2.9636 11.008h5.0804l13.548-11.008h13.125l-19.052 14.818 12.701 16.088h-13.548l-8.8908-11.854h-5.0804l-2.9636 11.854h-9.7375zm46.994 8.044 2.1169-8.044h36.41l-2.1169 8.044h-13.548l-5.9272 22.862h-9.7375l6.3506-22.862z" class="fil0"/><path d="m447.93 780.19 8.4674-30.906h33.023l-2.1168 7.6206h-23.709l-0.84674 4.2337h22.439l-2.1168 7.1973h-22.439l-1.2701 4.2337h23.709l-2.1168 7.6207zm91.025-27.942c2.9636 0 5.0804 1.2702 6.3506 2.9636 1.2701 2.1169 1.2701 5.0805 0 9.3142-0.84674 4.2337-2.5402 7.6206-5.0804 9.7375-2.5402 1.6935-5.0804 2.5402-8.044 2.5402h-11.854l-0.84674 3.387h-9.3141l0.84674-3.387h-11.854c-2.9636 0-5.0804-0.8467-6.3506-2.5402-1.2701-2.1169-1.2701-5.5038-0.42337-9.7375 1.2701-4.2337 2.9636-7.1973 5.5038-9.3142 2.1168-1.6934 5.0804-2.9636 8.044-2.9636h11.431l0.84674-2.9635h9.7375l-0.84674 2.9635zm-23.709 8.0441h-8.4674c-1.2701 0-2.1168 0.4233-2.9636 0.8467-0.84674 0.8468-1.2701 2.1169-1.6935 3.8103-0.84674 1.6935-0.42337 2.9636 0 3.8104 0.42337 0.4233 1.2701 0.8467 2.1168 0.8467h8.8908zm9.7375 0-2.5402 9.3141h8.4674c1.2701 0 2.1168-0.4234 2.9636-0.8467 0.84674-0.8468 1.6935-2.1169 2.1168-3.8104 0.42337-1.6934 0.42337-2.9635 0-3.3869-0.42337-0.8468-1.2701-1.2701-2.5402-1.2701zm28.789-2.9636 2.1168-8.044h36.833l-2.1168 8.044h-13.548l-5.9272 22.862h-9.7375l6.3506-22.862zm38.527 22.862 8.044-30.906h33.446l-2.1168 7.6206h-23.709l-1.2701 4.2337h22.862l-2.1168 7.1973h-22.439l-1.2701 4.2337h23.709l-2.1168 7.6207z" class="fil0"/><path d="m196.44 749.29h23.285c5.0804 0 8.044 0.8467 9.3141 2.1168 1.6935 1.2701 1.6935 4.6571 0.42337 9.7375-1.2701 4.6571-2.9636 8.044-5.5038 9.7375-2.1168 1.2701-5.5038 1.6935-10.584 1.6935h-13.548l-2.1168 7.6207h-9.3141zm5.5038 15.241h13.548c1.2701 0 2.1168 0 2.9636-0.4234 0.84674-0.8467 1.2701-1.6935 1.6935-2.9636 0.42337-1.2701 0-2.5402-0.42337-2.9636-0.42337-0.4233-1.2701-0.8467-2.1168-0.8467h-13.971zm49.958-15.241h16.511l6.7739 30.906h-11.008l-1.6935-5.0805h-18.628l-4.2337 5.0805h-11.008zm7.1973 7.1972h-1.6935l-8.044 10.584h11.854zm32.599-7.1972h9.3141l-2.5402 11.008h20.322l2.9636-11.008h9.3141l-8.044 30.906h-9.7375l3.387-11.854h-20.322l-3.387 11.854h-9.3141zm66.469-0.4234c8.8908 0 13.971 0.8467 15.665 2.1168 1.2701 1.2701 1.2701 4.6571 0 10.161h-9.7375c0.84674-1.6935 0.42337-2.9636-0.42337-3.3869-0.84674-0.4234-3.387-0.8468-7.6207-0.8468-4.6571 0-7.6207 0.4234-8.4674 1.2701-0.84674 0.4234-2.1168 2.9636-2.9636 6.7739-0.84674 3.8104-1.2701 5.9272-0.42337 6.774 0.42337 0.4233 2.9636 0.8467 7.6207 0.8467 4.2337 0 6.7739 0 8.044-0.8467 1.2701-0.4234 2.1168-1.6935 2.5402-3.387h9.3141c-1.2701 5.5038-2.9636 8.8908-5.0804 10.161-2.5402 1.2701-8.044 2.1168-16.935 2.1168-8.8908 0-13.971-0.8467-15.241-2.5402-1.6935-1.2701-1.2701-5.9272 0.84674-13.124 1.6935-7.6206 3.8103-11.854 5.9272-13.548 2.5402-1.6935 8.044-2.5402 16.935-2.5402z" class="fil0"/></g><g fill="#e31e24"><polygon transform="matrix(.42337 0 0 .42337 -24.132 -90.254)" points="1706 2052 1735 1944 1591 1944 1563 2052 1591 2052 1613 1967 1701 1967 1678 2052" class="fil1"/><polygon transform="matrix(.42337 0 0 .42337 -24.132 -90.254)" points="994 1985 1005 1945 977 1945 948 2052 976 2052 988 2007 1072 2007 1060 2052 1088 2052 1116 1945 1088 1945 1078 1985" class="fil1"/><polygon transform="matrix(.42337 0 0 .42337 -24.132 -90.254)" points="507 1944 377 1944 371 1967 422 1967 399 2052 427 2052 450 1967 501 1967" class="fil1"/></g></g><g transform="matrix(.91197 0 0 .91197 2.6447e-7 -653.33)"><polygon transform="matrix(.42337 0 0 .42337 -24.132 -90.254)" points="281 2034 356 2164 206 2164 57 2164 251 2108 206 1905" class="fil0" fill="#2b2a29"/><polygon transform="matrix(.42337 0 0 .42337 -24.132 -90.254)" points="138 2034 203 1921 243 2104 69 2153" class="fil1" fill="#e31e24"/></g></svg>
