<svg xmlns:rdf="http://www.w3.org/1999/02/22-rdf-syntax-ns#" xmlns="http://www.w3.org/2000/svg" xml:space="preserve" viewBox="0 0 500 151.87714" height="151.88" width="500" version="1.1" y="0px" x="0px" xmlns:cc="http://creativecommons.org/ns#" xmlns:dc="http://purl.org/dc/elements/1.1/"><style type="text/css">
	.st0{fill-rule:evenodd;clip-rule:evenodd;fill:#FFFFFF;}
	.st1{fill-rule:evenodd;clip-rule:evenodd;fill:#FFF343;}
	.st2{fill-rule:evenodd;clip-rule:evenodd;fill:#4D59A1;}
</style><g clip-rule="evenodd" fill-rule="evenodd"><path d="m500 151.88h-500v-151.88h500z" fill="#fff343"/><path d="m253.13 137.94c34.13 0 62.287-27.873 62.287-62.287s-27.873-62.287-62.287-62.287c-34.13 0-62.002 27.873-62.002 62.287-0.28441 34.414 27.588 62.287 62.002 62.287z" class="st2" fill="#4d59a1"/><path d="m256.83 130.55 14.505-25.313-6.2571 0.85324c4.835-15.358 12.799-29.01 22.469-40.387l1.9909 5.1194 15.643-24.46h-29.01l3.6974 5.1194h-23.038v79.067z" class="st1" fill="#fff343"/><path d="m249.15 130.55-14.505-25.313 6.5415 1.1376c-4.83-15.367-13.36-29.304-22.75-40.68l-1.9909 5.1194-15.927-24.46h30.148l-4.2662 5.4039h22.753v78.783z" class="st1" fill="#fff343"/><g fill="#4d59a1"><path d="m42.662 100.11h-10.523v-43.231h-6.2571v-5.1195h23.322v5.1195h-6.5415z"/><path d="m78.214 75.085c0 2.2753-0.28441 4.2662-1.1377 5.6883-1.1376 1.9909-3.413 2.8441-6.5415 2.8441h-4.2662v-5.4039c1.1376 0 1.7065-0.85325 1.7065-2.2753v-16.496c0-1.4221-0.56883-2.2753-1.7065-2.2753v-5.4039h4.2662c3.1286 0 5.4039 1.1377 6.5415 3.1286 0.85325 1.1377 1.1377 3.1286 1.1377 5.6883v14.505zm-12.23 8.5324v-5.4039h-0.28441-1.4221v-21.331h1.4221 0.28441v-5.4039h-12.23v48.35h10.523v-16.496h1.7065v0.28441z" class="st2"/><path d="m99.261 75.939h-0.56882l-4.2662 24.175h-10.523v-48.35h10.523v23.891h0.28442l4.5506-23.891h10.523v48.35h-10.523z"/><path d="m141.92 100.11h-10.239l-0.85324-12.799h-2.5597v-5.1195h1.9909l-1.7065-24.175h-0.28442v-5.9727h8.248l5.4039 48.066zm-13.652-13.083v-5.1194h-1.9909l1.7065-24.175h0.28441v-5.9727h-8.248l-5.4039 48.35h10.239l0.85325-12.799h2.5597v-0.28442z" class="st2"/><path d="m172.64 100.11h-10.523v-42.947h-3.413v34.414c0 2.5597-0.28441 4.5506-1.1376 5.6883-1.1377 1.9909-3.413 2.8441-6.8259 2.8441h-5.6883v-5.4039h1.1377c0.56883 0 0.85324 0 1.1377-0.56882 0.28441-0.28442 0.56883-0.85325 0.56883-1.9909v-40.671h24.46v48.635h0.28441z" class="st2"/><path d="m354.95 91.297c0 2.5597-0.28442 4.2662-1.1377 5.6883-1.1377 1.9909-3.413 3.1286-6.8259 3.1286h-8.5324c-3.413 0-5.6883-0.85324-6.8259-3.1286-0.85324-1.1377-1.1377-3.1286-1.1377-5.6883v-31.001c0-2.2753 0.28442-4.2662 1.1377-5.6883 1.1377-1.9909 3.413-2.8442 6.8259-2.8442h8.5324c3.1286 0 5.4039 0.85325 6.8259 2.8442 0.85324 1.1376 1.1377 3.1286 1.1377 5.6883v6.8259h-10.523v-8.5324c0-1.1376-0.56882-1.4221-1.7065-1.4221-0.28442 0-0.85324 0-1.1377 0.28442-0.28441 0.28441-0.56883 0.56882-0.56883 1.1376v34.414c0 1.1377 0.56883 1.7065 1.7065 1.7065 0.56883 0 1.1377-0.28441 1.1377-0.56882 0.28441-0.28442 0.28441-0.85325 0.28441-1.1377v-9.9545h10.523v8.248h0.28442z" class="st2"/><path d="m416.1 91.297c0 2.5597-0.28442 4.2662-1.1377 5.6883-1.1376 1.9909-3.413 3.1286-6.8259 3.1286h-4.2662v-5.4039c0.56883 0 0.85324-0.28441 1.1377-0.56882 0.28441-0.28442 0.28441-0.85325 0.28441-1.1377v-34.414c0-1.1376-0.56883-1.4221-1.7065-1.4221v-5.4039h4.2662c3.1286 0 5.4039 0.85325 6.8259 2.8442 0.85324 1.1376 1.1376 3.1286 1.1376 5.6883v31.001h0.28442zm-12.23 8.8168v-5.4039c-1.1376 0-1.7065-0.56882-1.7065-1.7065v-34.414c0-0.56883 0.28441-0.85324 0.56883-1.1376 0.28441-0.28442 0.85324-0.28442 1.1376-0.28442v-5.4039h-4.5506c-3.1286 0-5.4039 0.85325-6.5415 2.8442-0.85324 1.4221-1.1376 3.1286-1.1376 5.6883v31.001c0 2.5597 0.28441 4.2662 1.1376 5.6883 1.1377 1.9909 3.413 3.1286 6.5415 3.1286h4.5506z" class="st2"/><path d="m446.53 74.801c0 2.5597-0.28442 4.2662-1.1377 5.6883-1.1376 1.9909-3.413 3.1286-6.5415 3.1286h-4.2662v-5.1194c1.1376 0 1.7065-0.85324 1.7065-2.5597v-16.496c0-1.4221-0.56883-2.2753-1.7065-2.2753v-5.4039h4.2662c3.1286 0 5.4039 0.85325 6.5415 2.8442 0.85324 1.1376 1.1377 3.1286 1.1377 5.6883v14.505zm-12.23 8.8168v-5.1194h-0.28441-1.4221v-21.331h1.4221 0.28441v-5.4039h-12.23v48.35h10.523v-16.496h1.7065z" class="st2"/><path d="m467.58 100.11h-10.523v-42.947h-6.2571v-5.4039h23.038v5.4039h-6.2571z"/><path d="m374.86 57.167h-3.1286v42.947h-10.523v-48.35h24.175v48.35h-10.523z"/></g></g></svg>
